<svg width="664" height="83" viewBox="0 0 664 83" fill="none" xmlns="http://www.w3.org/2000/svg">
<mask id="mask0_0_1" style="mask-type:luminance" maskUnits="userSpaceOnUse" x="0" y="0" width="624" height="74">
<path d="M624 0H0V74H624V0Z" fill="white"/>
<path d="M4.94003 56.4L9.58304 44.448H1.36902V36.672H12.53L17.619 23.784H4.13702V16.08H20.744L25.476 4.63199H35.208L30.297 16.08H49.583L54.315 4.63199H64.047L59.136 16.08H66.815V23.784H56.19L51.011 36.672H63.958V44.448H47.976L43.422 56.4H33.779L38.422 44.448H19.047L14.672 56.4H4.94003ZM22.262 36.672H41.369L46.458 23.784H27.351L22.262 36.672ZM77.071 56.4V10.32C77.071 8.59201 77.577 7.03201 78.589 5.64001C79.66 4.20001 81.059 3.07201 82.785 2.25601C84.571 1.39201 86.535 0.959991 88.678 0.959991H107.963V8.73599H88.946C88.351 8.73599 87.815 8.92801 87.339 9.31201C86.922 9.64801 86.714 10.056 86.714 10.536V14.64H107.963V22.416H86.714V56.4H77.071ZM117.066 56.4V24C117.066 22.272 117.602 20.712 118.673 19.32C119.744 17.928 121.143 16.8 122.869 15.936C124.655 15.072 126.59 14.64 128.673 14.64H157.601V22.416H128.941C128.346 22.416 127.81 22.608 127.334 22.992C126.917 23.328 126.709 23.736 126.709 24.216V56.4H117.066ZM177.299 56.4C175.157 56.4 173.222 55.968 171.496 55.104C169.77 54.24 168.371 53.112 167.299 51.72C166.228 50.328 165.692 48.768 165.692 47.04V24C165.692 22.272 166.228 20.712 167.299 19.32C168.371 17.928 169.77 16.8 171.496 15.936C173.222 15.072 175.157 14.64 177.299 14.64H206.763C208.906 14.64 210.841 15.072 212.567 15.936C214.352 16.752 215.751 17.88 216.763 19.32C217.835 20.76 218.37 22.32 218.37 24V47.04C218.37 48.768 217.835 50.328 216.763 51.72C215.751 53.112 214.352 54.24 212.567 55.104C210.841 55.968 208.906 56.4 206.763 56.4H177.299ZM177.567 48.624H206.495C207.091 48.624 207.597 48.456 208.013 48.12C208.43 47.736 208.638 47.304 208.638 46.824V24.216C208.638 23.736 208.43 23.328 208.013 22.992C207.597 22.608 207.091 22.416 206.495 22.416H177.567C176.972 22.416 176.436 22.608 175.96 22.992C175.543 23.328 175.335 23.736 175.335 24.216V46.824C175.335 47.304 175.543 47.736 175.96 48.12C176.436 48.456 176.972 48.624 177.567 48.624ZM238.404 72.888V65.04H270.1C270.695 65.04 271.201 64.848 271.618 64.464C272.094 64.128 272.332 63.72 272.332 63.24V56.4H240.904C238.821 56.4 236.886 55.992 235.101 55.176C233.315 54.312 231.886 53.16 230.815 51.72C229.803 50.28 229.297 48.72 229.297 47.04V24C229.297 22.272 229.833 20.712 230.904 19.32C231.976 17.928 233.375 16.8 235.101 15.936C236.886 15.072 238.821 14.64 240.904 14.64H270.368C272.511 14.64 274.445 15.072 276.172 15.936C277.957 16.8 279.356 17.928 280.368 19.32C281.439 20.712 281.975 22.272 281.975 24V63.528C281.975 65.256 281.439 66.816 280.368 68.208C279.356 69.648 277.957 70.776 276.172 71.592C274.445 72.456 272.511 72.888 270.368 72.888H238.404ZM241.172 48.624H270.1C270.695 48.624 271.201 48.456 271.618 48.12C272.094 47.736 272.332 47.304 272.332 46.824V24.216C272.332 23.736 272.094 23.328 271.618 22.992C271.201 22.608 270.695 22.416 270.1 22.416H241.172C240.577 22.416 240.041 22.608 239.565 22.992C239.148 23.328 238.94 23.736 238.94 24.216V46.824C238.94 47.304 239.148 47.736 239.565 48.12C240.041 48.456 240.577 48.624 241.172 48.624ZM294.084 56.4V48.624H303.726V56.4H294.084ZM327.539 56.4C325.396 56.4 323.462 55.968 321.735 55.104C320.009 54.24 318.611 53.112 317.539 51.72C316.468 50.328 315.932 48.768 315.932 47.04V45.96H325.575V46.824C325.575 47.304 325.783 47.736 326.2 48.12C326.676 48.456 327.212 48.624 327.807 48.624H356.736C357.332 48.624 357.838 48.456 358.254 48.12C358.671 47.736 358.879 47.304 358.879 46.824V41.208C358.879 40.728 358.671 40.32 358.254 39.984C357.838 39.6 357.332 39.408 356.736 39.408H327.539C325.396 39.408 323.462 39 321.735 38.184C320.009 37.32 318.611 36.192 317.539 34.8C316.468 33.36 315.932 31.776 315.932 30.048V24C315.932 22.272 316.468 20.712 317.539 19.32C318.611 17.928 320.009 16.8 321.735 15.936C323.462 15.072 325.396 14.64 327.539 14.64H357.004C359.147 14.64 361.082 15.072 362.808 15.936C364.594 16.8 365.992 17.928 367.004 19.32C368.076 20.712 368.611 22.272 368.611 24V25.08H358.879V24.216C358.879 23.736 358.671 23.328 358.254 22.992C357.838 22.608 357.332 22.416 356.736 22.416H327.807C327.212 22.416 326.676 22.608 326.2 22.992C325.783 23.328 325.575 23.736 325.575 24.216V29.832C325.575 30.312 325.783 30.744 326.2 31.128C326.676 31.464 327.212 31.632 327.807 31.632H357.004C359.147 31.632 361.082 32.064 362.808 32.928C364.594 33.744 365.992 34.872 367.004 36.312C368.076 37.704 368.611 39.264 368.611 40.992V47.04C368.611 48.768 368.076 50.328 367.004 51.72C365.992 53.112 364.594 54.24 362.808 55.104C361.082 55.968 359.147 56.4 357.004 56.4H327.539ZM391.875 56.4C389.732 56.4 387.768 55.968 385.982 55.104C384.256 54.24 382.857 53.112 381.786 51.72C380.774 50.328 380.268 48.768 380.268 47.04V1.46399H389.911V14.64H411.16V22.416H389.911V46.824C389.911 47.304 390.119 47.736 390.536 48.12C391.012 48.456 391.548 48.624 392.143 48.624H411.16V56.4H391.875ZM432.48 56.4C430.337 56.4 428.373 55.968 426.587 55.104C424.861 54.24 423.462 53.112 422.39 51.72C421.379 50.328 420.873 48.768 420.873 47.04V14.64H430.515V46.824C430.515 47.304 430.724 47.736 431.14 48.12C431.617 48.456 432.152 48.624 432.748 48.624H461.676C462.271 48.624 462.777 48.456 463.194 48.12C463.67 47.736 463.908 47.304 463.908 46.824V14.64H473.55V47.04C473.55 48.768 473.015 50.328 471.943 51.72C470.932 53.112 469.533 54.24 467.747 55.104C466.021 55.968 464.086 56.4 461.944 56.4H432.48ZM495.083 56.4C492.94 56.4 490.976 55.992 489.19 55.176C487.464 54.312 486.065 53.16 484.994 51.72C483.982 50.28 483.476 48.72 483.476 47.04V24C483.476 22.272 483.982 20.712 484.994 19.32C486.065 17.928 487.464 16.8 489.19 15.936C490.976 15.072 492.94 14.64 495.083 14.64H526.51V0.959991H536.15V56.4H495.083ZM495.44 48.624H524.37C524.96 48.624 525.47 48.456 525.89 48.12C526.3 47.736 526.51 47.304 526.51 46.824V24.216C526.51 23.736 526.3 23.328 525.89 22.992C525.47 22.608 524.96 22.416 524.37 22.416H495.44C494.845 22.416 494.309 22.608 493.833 22.992C493.416 23.328 493.208 23.736 493.208 24.216V46.824C493.208 47.304 493.416 47.736 493.833 48.12C494.309 48.456 494.845 48.624 495.44 48.624ZM548.3 56.4V14.64H557.94V56.4H548.3ZM548.3 8.73599V0.959991H557.94V8.73599H548.3ZM581.76 56.4C579.62 56.4 577.69 55.968 575.96 55.104C574.23 54.24 572.83 53.112 571.76 51.72C570.69 50.328 570.16 48.768 570.16 47.04V24C570.16 22.272 570.69 20.712 571.76 19.32C572.83 17.928 574.23 16.8 575.96 15.936C577.69 15.072 579.62 14.64 581.76 14.64H611.23C613.37 14.64 615.3 15.072 617.03 15.936C618.82 16.752 620.22 17.88 621.23 19.32C622.3 20.76 622.83 22.32 622.83 24V47.04C622.83 48.768 622.3 50.328 621.23 51.72C620.22 53.112 618.82 54.24 617.03 55.104C615.3 55.968 613.37 56.4 611.23 56.4H581.76ZM582.03 48.624H610.96C611.55 48.624 612.06 48.456 612.48 48.12C612.89 47.736 613.1 47.304 613.1 46.824V24.216C613.1 23.736 612.89 23.328 612.48 22.992C612.06 22.608 611.55 22.416 610.96 22.416H582.03C581.44 22.416 580.9 22.608 580.42 22.992C580.01 23.328 579.8 23.736 579.8 24.216V46.824C579.8 47.304 580.01 47.736 580.42 48.12C580.9 48.456 581.44 48.624 582.03 48.624Z" fill="black"/>
</mask>
<g mask="url(#mask0_0_1)">
<path d="M4.93994 56.4L3.99295 56.161L3.58994 57.2H4.93994V56.4ZM9.58295 44.448L10.5299 44.687L10.933 43.648H9.58295V44.448ZM1.36893 44.448H0.376953V45.248H1.36893V44.448ZM1.36893 36.672V35.872H0.376953V36.672H1.36893ZM12.5299 36.672V37.472H13.2549L13.4749 36.915L12.5299 36.672ZM17.6189 23.784L18.5639 24.027L18.976 22.984H17.6189V23.784ZM4.13693 23.784H3.14493V24.584H4.13693V23.784ZM4.13693 16.08V15.28H3.14493V16.08H4.13693ZM20.7439 16.08V16.88H21.459L21.6849 16.333L20.7439 16.08ZM25.476 4.63199V3.832H24.7609L24.5349 4.379L25.476 4.63199ZM35.2079 4.63199L36.145 4.89401L36.601 3.832H35.2079V4.63199ZM30.2969 16.08L29.3599 15.818L28.9039 16.88H30.2969V16.08ZM49.5829 16.08V16.88H50.2979L50.5239 16.333L49.5829 16.08ZM54.3149 4.63199V3.832H53.5999L53.374 4.379L54.3149 4.63199ZM64.0469 4.63199L64.9839 4.89401L65.4399 3.832H64.0469V4.63199ZM59.1359 16.08L58.1989 15.818L57.7429 16.88H59.1359V16.08ZM66.8149 16.08H67.8069V15.28H66.8149V16.08ZM66.8149 23.784V24.584H67.8069V23.784H66.8149ZM56.1899 23.784V22.984H55.4689L55.2459 23.538L56.1899 23.784ZM51.0109 36.672L50.067 36.426L49.6469 37.472H51.0109V36.672ZM63.9579 36.672H64.95V35.872H63.9579V36.672ZM63.9579 44.448V45.248H64.95V44.448H63.9579ZM47.976 44.448V43.648H47.2419L47.0269 44.213L47.976 44.448ZM43.4219 56.4V57.2H44.155L44.3699 56.635L43.4219 56.4ZM33.7789 56.4L32.8319 56.161L32.4289 57.2H33.7789V56.4ZM38.4219 44.448L39.369 44.687L39.7719 43.648H38.4219V44.448ZM19.0469 44.448V43.648H18.3059L18.0959 44.222L19.0469 44.448ZM14.6719 56.4V57.2H15.4139L15.6239 56.626L14.6719 56.4ZM22.2619 36.672L21.3159 36.429L20.9049 37.472H22.2619V36.672ZM41.369 36.672V37.472H42.0939L42.314 36.915L41.369 36.672ZM46.4579 23.784L47.403 24.027L47.8149 22.984H46.4579V23.784ZM27.351 23.784V22.984H26.6259L26.4049 23.541L27.351 23.784ZM5.88693 56.639L10.5299 44.687L8.63593 44.209L3.99295 56.161L5.88693 56.639ZM9.58295 43.648H1.36893V45.248H9.58295V43.648ZM2.36093 44.448V36.672H0.376953V44.448H2.36093ZM1.36893 37.472H12.5299V35.872H1.36893V37.472ZM13.4749 36.915L18.5639 24.027L16.6729 23.541L11.584 36.429L13.4749 36.915ZM17.6189 22.984H4.13693V24.584H17.6189V22.984ZM5.12894 23.784V16.08H3.14493V23.784H5.12894ZM4.13693 16.88H20.7439V15.28H4.13693V16.88ZM21.6849 16.333L26.4169 4.88501L24.5349 4.379L19.8029 15.827L21.6849 16.333ZM25.476 5.43201H35.2079V3.832H25.476V5.43201ZM34.27 4.37L29.3599 15.818L31.2349 16.342L36.145 4.89401L34.27 4.37ZM30.2969 16.88H49.5829V15.28H30.2969V16.88ZM50.5239 16.333L55.2559 4.88501L53.374 4.379L48.642 15.827L50.5239 16.333ZM54.3149 5.43201H64.0469V3.832H54.3149V5.43201ZM63.1089 4.37L58.1989 15.818L60.0739 16.342L64.9839 4.89401L63.1089 4.37ZM59.1359 16.88H66.8149V15.28H59.1359V16.88ZM65.8229 16.08V23.784H67.8069V16.08H65.8229ZM66.8149 22.984H56.1899V24.584H66.8149V22.984ZM55.2459 23.538L50.067 36.426L51.955 36.918L57.1339 24.03L55.2459 23.538ZM51.0109 37.472H63.9579V35.872H51.0109V37.472ZM62.965 36.672V44.448H64.95V36.672H62.965ZM63.9579 43.648H47.976V45.248H63.9579V43.648ZM47.0269 44.213L42.4739 56.165L44.3699 56.635L48.924 44.683L47.0269 44.213ZM43.4219 55.6H33.7789V57.2H43.4219V55.6ZM34.726 56.639L39.369 44.687L37.4749 44.209L32.8319 56.161L34.726 56.639ZM38.4219 43.648H19.0469V45.248H38.4219V43.648ZM18.0959 44.222L13.7209 56.174L15.6239 56.626L19.9989 44.674L18.0959 44.222ZM14.6719 55.6H4.93994V57.2H14.6719V55.6ZM22.2619 37.472H41.369V35.872H22.2619V37.472ZM42.314 36.915L47.403 24.027L45.512 23.541L40.4229 36.429L42.314 36.915ZM46.4579 22.984H27.351V24.584H46.4579V22.984ZM26.4049 23.541L21.3159 36.429L23.2069 36.915L28.2959 24.027L26.4049 23.541ZM77.0709 56.4H76.0789V57.2H77.0709V56.4ZM78.5889 5.64001L77.739 5.228L77.736 5.23199L77.7329 5.23599L78.5889 5.64001ZM82.7849 2.25601L83.2869 2.94601L83.2919 2.944L83.296 2.94199L82.7849 2.25601ZM107.963 0.959991H108.955V0.160004H107.963V0.959991ZM107.963 8.73599V9.53601H108.955V8.73599H107.963ZM86.7139 14.64H85.7219V15.44H86.7139V14.64ZM107.963 14.64H108.955V13.84H107.963V14.64ZM107.963 22.416V23.216H108.955V22.416H107.963ZM86.7139 22.416V21.616H85.7219V22.416H86.7139ZM86.7139 56.4V57.2H87.7059V56.4H86.7139ZM78.0629 56.4V10.32H76.0789V56.4H78.0629ZM78.0629 10.32C78.0629 8.72401 78.5279 7.30501 79.4449 6.04401L77.7329 5.23599C76.6259 6.75899 76.0789 8.46001 76.0789 10.32H78.0629ZM79.439 6.052C80.429 4.722 81.7099 3.69201 83.2869 2.94601L82.2839 1.56601C80.4079 2.45201 78.892 3.678 77.739 5.228L79.439 6.052ZM83.296 2.94199C84.923 2.15499 86.7099 1.76001 88.6779 1.76001V0.160004C86.3609 0.160004 84.22 0.629007 82.275 1.57001L83.296 2.94199ZM88.6779 1.76001H107.963V0.160004H88.6779V1.76001ZM106.971 0.959991V8.73599H108.955V0.959991H106.971ZM107.963 7.936H88.9459V9.53601H107.963V7.936ZM88.9459 7.936C88.0519 7.936 87.273 8.234 86.637 8.746L88.041 9.87799C88.357 9.62199 88.6489 9.53601 88.9459 9.53601V7.936ZM86.637 8.746C86.033 9.234 85.7219 9.84601 85.7219 10.536H87.7059C87.7059 10.266 87.812 10.062 88.041 9.87799L86.637 8.746ZM85.7219 10.536V14.64H87.7059V10.536H85.7219ZM86.7139 15.44H107.963V13.84H86.7139V15.44ZM106.971 14.64V22.416H108.955V14.64H106.971ZM107.963 21.616H86.7139V23.216H107.963V21.616ZM85.7219 22.416V56.4H87.7059V22.416H85.7219ZM86.7139 55.6H77.0709V57.2H86.7139V55.6ZM117.066 56.4H116.074V57.2H117.066V56.4ZM122.869 15.936L122.359 15.25L122.353 15.253L122.346 15.256L122.869 15.936ZM157.601 14.64H158.593V13.84H157.601V14.64ZM157.601 22.416V23.216H158.593V22.416H157.601ZM126.709 56.4V57.2H127.701V56.4H126.709ZM118.058 56.4V24H116.074V56.4H118.058ZM118.058 24C118.058 22.412 118.547 21 119.516 19.742L117.83 18.898C116.656 20.424 116.074 22.132 116.074 24H118.058ZM119.516 19.742C120.507 18.454 121.796 17.415 123.392 16.616L122.346 15.256C120.49 16.185 118.982 17.402 117.83 18.898L119.516 19.742ZM123.38 16.622C125.011 15.833 126.769 15.44 128.673 15.44V13.84C126.41 13.84 124.299 14.311 122.359 15.25L123.38 16.622ZM128.673 15.44H157.601V13.84H128.673V15.44ZM156.609 14.64V22.416H158.593V14.64H156.609ZM157.601 21.616H128.941V23.216H157.601V21.616ZM128.941 21.616C128.047 21.616 127.268 21.914 126.632 22.426L128.035 23.558C128.352 23.302 128.644 23.216 128.941 23.216V21.616ZM126.632 22.426C126.027 22.914 125.717 23.526 125.717 24.216H127.701C127.701 23.946 127.806 23.742 128.035 23.558L126.632 22.426ZM125.717 24.216V56.4H127.701V24.216H125.717ZM126.709 55.6H117.066V57.2H126.709V55.6ZM212.567 15.936L212.043 16.616L212.06 16.624L212.078 16.632L212.567 15.936ZM216.763 19.32L215.9 19.714L215.906 19.723L215.912 19.732L216.763 19.32ZM216.763 51.72L215.92 51.298L215.914 51.307L215.908 51.316L216.763 51.72ZM212.567 55.104L212.056 54.418L212.05 54.421L212.043 54.424L212.567 55.104ZM208.013 48.12L208.715 48.686L208.738 48.667L208.76 48.647L208.013 48.12ZM208.013 22.992L207.267 23.519L207.289 23.539L207.312 23.558L208.013 22.992ZM175.96 48.12L175.214 48.647L175.257 48.687L175.307 48.722L175.96 48.12ZM177.299 55.6C175.331 55.6 173.58 55.205 172.019 54.424L170.973 55.784C172.865 56.731 174.982 57.2 177.299 57.2V55.6ZM172.019 54.424C170.422 53.625 169.133 52.586 168.142 51.298L166.457 52.142C167.608 53.638 169.117 54.855 170.973 55.784L172.019 54.424ZM168.142 51.298C167.174 50.04 166.684 48.628 166.684 47.04H164.7C164.7 48.908 165.282 50.616 166.457 52.142L168.142 51.298ZM166.684 47.04V24H164.7V47.04H166.684ZM166.684 24C166.684 22.412 167.174 21 168.142 19.742L166.457 18.898C165.282 20.424 164.7 22.132 164.7 24H166.684ZM168.142 19.742C169.133 18.454 170.422 17.415 172.019 16.616L170.973 15.256C169.117 16.185 167.608 17.402 166.457 18.898L168.142 19.742ZM172.019 16.616C173.58 15.835 175.331 15.44 177.299 15.44V13.84C174.982 13.84 172.865 14.309 170.973 15.256L172.019 16.616ZM177.299 15.44H206.763V13.84H177.299V15.44ZM206.763 15.44C208.732 15.44 210.483 15.835 212.043 16.616L213.09 15.256C211.198 14.309 209.081 13.84 206.763 13.84V15.44ZM212.078 16.632C213.707 17.377 214.977 18.4 215.9 19.714L217.626 18.926C216.526 17.36 214.998 16.127 213.056 15.24L212.078 16.632ZM215.912 19.732C216.892 21.047 217.378 22.465 217.378 24H219.362C219.362 22.175 218.778 20.473 217.614 18.908L215.912 19.732ZM217.378 24V47.04H219.362V24H217.378ZM217.378 47.04C217.378 48.628 216.889 50.04 215.92 51.298L217.606 52.142C218.78 50.616 219.362 48.908 219.362 47.04H217.378ZM215.908 51.316C214.983 52.587 213.706 53.62 212.056 54.418L213.077 55.79C214.999 54.86 216.52 53.637 217.619 52.124L215.908 51.316ZM212.043 54.424C210.483 55.205 208.732 55.6 206.763 55.6V57.2C209.081 57.2 211.198 56.731 213.09 55.784L212.043 54.424ZM206.763 55.6H177.299V57.2H206.763V55.6ZM177.567 49.424H206.495V47.824H177.567V49.424ZM206.495 49.424C207.351 49.424 208.11 49.174 208.715 48.686L207.312 47.554C207.083 47.738 206.831 47.824 206.495 47.824V49.424ZM208.76 48.647C209.324 48.127 209.63 47.511 209.63 46.824H207.646C207.646 47.097 207.536 47.345 207.267 47.593L208.76 48.647ZM209.63 46.824V24.216H207.646V46.824H209.63ZM209.63 24.216C209.63 23.526 209.32 22.914 208.715 22.426L207.312 23.558C207.541 23.742 207.646 23.946 207.646 24.216H209.63ZM208.76 22.465C208.168 21.92 207.397 21.616 206.495 21.616V23.216C206.785 23.216 207.025 23.296 207.267 23.519L208.76 22.465ZM206.495 21.616H177.567V23.216H206.495V21.616ZM177.567 21.616C176.673 21.616 175.894 21.914 175.259 22.426L176.661 23.558C176.978 23.302 177.271 23.216 177.567 23.216V21.616ZM175.259 22.426C174.654 22.914 174.343 23.526 174.343 24.216H176.327C176.327 23.946 176.433 23.742 176.661 23.558L175.259 22.426ZM174.343 24.216V46.824H176.327V24.216H174.343ZM174.343 46.824C174.343 47.511 174.65 48.127 175.214 48.647L176.707 47.593C176.437 47.345 176.327 47.097 176.327 46.824H174.343ZM175.307 48.722C175.952 49.177 176.716 49.424 177.567 49.424V47.824C177.228 47.824 176.921 47.735 176.613 47.518L175.307 48.722ZM238.404 72.888H237.412V73.688H238.404V72.888ZM238.404 65.04V64.24H237.412V65.04H238.404ZM271.618 64.464L270.965 63.862L270.915 63.897L270.872 63.937L271.618 64.464ZM272.332 56.4H273.324V55.6H272.332V56.4ZM235.101 55.176L234.59 55.862L234.601 55.867L234.612 55.872L235.101 55.176ZM230.815 51.72L229.952 52.114L229.958 52.123L229.964 52.132L230.815 51.72ZM235.101 15.936L234.59 15.25L234.584 15.253L234.577 15.256L235.101 15.936ZM276.172 15.936L275.648 16.616L275.655 16.619L275.661 16.622L276.172 15.936ZM280.368 19.32L279.512 19.724L279.518 19.733L279.525 19.742L280.368 19.32ZM280.368 68.208L279.525 67.786L279.515 67.8L279.505 67.814L280.368 68.208ZM276.172 71.592L275.683 70.896L275.665 70.904L275.648 70.912L276.172 71.592ZM271.618 22.992L270.872 23.519L270.915 23.559L270.965 23.594L271.618 22.992ZM239.565 48.12L238.818 48.647L238.862 48.687L238.912 48.722L239.565 48.12ZM239.396 72.888V65.04H237.412V72.888H239.396ZM238.404 65.84H270.1V64.24H238.404V65.84ZM270.1 65.84C271.002 65.84 271.773 65.536 272.365 64.991L270.872 63.937C270.63 64.16 270.389 64.24 270.1 64.24V65.84ZM272.271 65.066C272.947 64.589 273.324 63.967 273.324 63.24H271.34C271.34 63.473 271.241 63.667 270.965 63.862L272.271 65.066ZM273.324 63.24V56.4H271.34V63.24H273.324ZM272.332 55.6H240.904V57.2H272.332V55.6ZM240.904 55.6C238.99 55.6 237.224 55.227 235.59 54.48L234.612 55.872C236.549 56.757 238.652 57.2 240.904 57.2V55.6ZM235.611 54.49C233.965 53.694 232.653 52.636 231.666 51.308L229.964 52.132C231.12 53.684 232.665 54.93 234.59 55.862L235.611 54.49ZM231.678 51.326C230.752 50.008 230.289 48.584 230.289 47.04H228.305C228.305 48.856 228.854 50.552 229.952 52.114L231.678 51.326ZM230.289 47.04V24H228.305V47.04H230.289ZM230.289 24C230.289 22.412 230.779 21 231.747 19.742L230.062 18.898C228.887 20.424 228.305 22.132 228.305 24H230.289ZM231.747 19.742C232.738 18.454 234.027 17.415 235.624 16.616L234.577 15.256C232.722 16.185 231.213 17.402 230.062 18.898L231.747 19.742ZM235.611 16.622C237.243 15.833 239 15.44 240.904 15.44V13.84C238.641 13.84 236.53 14.311 234.59 15.25L235.611 16.622ZM240.904 15.44H270.368V13.84H240.904V15.44ZM270.368 15.44C272.337 15.44 274.088 15.835 275.648 16.616L276.695 15.256C274.803 14.309 272.685 13.84 270.368 13.84V15.44ZM275.661 16.622C277.31 17.42 278.588 18.453 279.512 19.724L281.224 18.916C280.124 17.403 278.604 16.18 276.682 15.25L275.661 16.622ZM279.525 19.742C280.493 21 280.983 22.412 280.983 24H282.967C282.967 22.132 282.385 20.424 281.211 18.898L279.525 19.742ZM280.983 24V63.528H282.967V24H280.983ZM280.983 63.528C280.983 65.116 280.493 66.528 279.525 67.786L281.211 68.63C282.385 67.104 282.967 65.396 282.967 63.528H280.983ZM279.505 67.814C278.581 69.128 277.312 70.151 275.683 70.896L276.661 72.288C278.603 71.401 280.131 70.168 281.231 68.602L279.505 67.814ZM275.648 70.912C274.088 71.693 272.337 72.088 270.368 72.088V73.688C272.685 73.688 274.803 73.219 276.695 72.272L275.648 70.912ZM270.368 72.088H238.404V73.688H270.368V72.088ZM241.172 49.424H270.1V47.824H241.172V49.424ZM270.1 49.424C270.955 49.424 271.715 49.174 272.319 48.686L270.917 47.554C270.688 47.738 270.436 47.824 270.1 47.824V49.424ZM272.319 48.686C272.955 48.173 273.324 47.545 273.324 46.824H271.34C271.34 47.063 271.233 47.299 270.917 47.554L272.319 48.686ZM273.324 46.824V24.216H271.34V46.824H273.324ZM273.324 24.216C273.324 23.489 272.947 22.867 272.271 22.39L270.965 23.594C271.241 23.789 271.34 23.983 271.34 24.216H273.324ZM272.365 22.465C271.773 21.92 271.002 21.616 270.1 21.616V23.216C270.389 23.216 270.63 23.296 270.872 23.519L272.365 22.465ZM270.1 21.616H241.172V23.216H270.1V21.616ZM241.172 21.616C240.278 21.616 239.499 21.914 238.864 22.426L240.266 23.558C240.583 23.302 240.875 23.216 241.172 23.216V21.616ZM238.864 22.426C238.259 22.914 237.948 23.526 237.948 24.216H239.932C239.932 23.946 240.038 23.742 240.266 23.558L238.864 22.426ZM237.948 24.216V46.824H239.932V24.216H237.948ZM237.948 46.824C237.948 47.511 238.254 48.127 238.818 48.647L240.311 47.593C240.042 47.345 239.932 47.097 239.932 46.824H237.948ZM238.912 48.722C239.556 49.177 240.32 49.424 241.172 49.424V47.824C240.833 47.824 240.526 47.735 240.218 47.518L238.912 48.722ZM294.084 56.4H293.092V57.2H294.084V56.4ZM294.084 48.624V47.824H293.092V48.624H294.084ZM303.726 48.624H304.718V47.824H303.726V48.624ZM303.726 56.4V57.2H304.718V56.4H303.726ZM295.076 56.4V48.624H293.092V56.4H295.076ZM294.084 49.424H303.726V47.824H294.084V49.424ZM302.734 48.624V56.4H304.718V48.624H302.734ZM303.726 55.6H294.084V57.2H303.726V55.6ZM315.932 45.96V45.16H314.94V45.96H315.932ZM325.575 45.96H326.567V45.16H325.575V45.96ZM326.2 48.12L325.453 48.647L325.496 48.687L325.546 48.722L326.2 48.12ZM358.254 48.12L358.954 48.686L358.979 48.667L358.998 48.647L358.254 48.12ZM358.254 39.984L357.505 40.511L357.53 40.531L357.55 40.55L358.254 39.984ZM321.736 38.184L321.212 38.864L321.223 38.869L321.234 38.874L321.736 38.184ZM317.539 34.8L316.688 35.212L316.692 35.217L316.696 35.222L317.539 34.8ZM362.808 15.936L362.282 16.616L362.287 16.619L362.297 16.622L362.808 15.936ZM367.004 19.32L366.146 19.724L366.151 19.733L366.161 19.742L367.004 19.32ZM368.611 25.08V25.88H369.603V25.08H368.611ZM358.879 25.08H357.887V25.88H358.879V25.08ZM358.254 22.992L357.505 23.519L357.53 23.539L357.55 23.558L358.254 22.992ZM326.2 31.128L325.453 31.655L325.496 31.695L325.546 31.73L326.2 31.128ZM362.808 32.928L362.282 33.608L362.302 33.616L362.317 33.624L362.808 32.928ZM367.004 36.312L366.141 36.706L366.151 36.72L366.161 36.734L367.004 36.312ZM367.004 51.72L366.161 51.298L366.151 51.307L366.146 51.316L367.004 51.72ZM362.808 55.104L362.297 54.418L362.287 54.421L362.282 54.424L362.808 55.104ZM327.539 55.6C325.57 55.6 323.819 55.205 322.258 54.424L321.212 55.784C323.104 56.731 325.222 57.2 327.539 57.2V55.6ZM322.258 54.424C320.662 53.625 319.373 52.586 318.382 51.298L316.696 52.142C317.848 53.638 319.356 54.855 321.212 55.784L322.258 54.424ZM318.382 51.298C317.414 50.04 316.924 48.628 316.924 47.04H314.94C314.94 48.908 315.522 50.616 316.696 52.142L318.382 51.298ZM316.924 47.04V45.96H314.94V47.04H316.924ZM315.932 46.76H325.575V45.16H315.932V46.76ZM324.583 45.96V46.824H326.567V45.96H324.583ZM324.583 46.824C324.583 47.511 324.889 48.127 325.453 48.647L326.946 47.593C326.677 47.345 326.567 47.097 326.567 46.824H324.583ZM325.546 48.722C326.191 49.177 326.955 49.424 327.807 49.424V47.824C327.468 47.824 327.161 47.735 326.853 47.518L325.546 48.722ZM327.807 49.424H356.737V47.824H327.807V49.424ZM356.737 49.424C357.59 49.424 358.349 49.174 358.954 48.686L357.55 47.554C357.322 47.738 357.069 47.824 356.737 47.824V49.424ZM358.998 48.647C359.564 48.127 359.871 47.511 359.871 46.824H357.887C357.887 47.097 357.773 47.345 357.505 47.593L358.998 48.647ZM359.871 46.824V41.208H357.887V46.824H359.871ZM359.871 41.208C359.871 40.518 359.559 39.906 358.954 39.418L357.55 40.55C357.778 40.734 357.887 40.938 357.887 41.208H359.871ZM358.998 39.457C358.408 38.912 357.634 38.608 356.737 38.608V40.208C357.024 40.208 357.262 40.288 357.505 40.511L358.998 39.457ZM356.737 38.608H327.539V40.208H356.737V38.608ZM327.539 38.608C325.559 38.608 323.8 38.233 322.237 37.494L321.234 38.874C323.123 39.767 325.233 40.208 327.539 40.208V38.608ZM322.258 37.504C320.662 36.705 319.373 35.666 318.382 34.378L316.696 35.222C317.848 36.718 319.356 37.935 321.212 38.864L322.258 37.504ZM318.39 34.388C317.414 33.076 316.924 31.636 316.924 30.048H314.94C314.94 31.916 315.522 33.644 316.688 35.212L318.39 34.388ZM316.924 30.048V24H314.94V30.048H316.924ZM316.924 24C316.924 22.412 317.414 21 318.382 19.742L316.696 18.898C315.522 20.424 314.94 22.132 314.94 24H316.924ZM318.382 19.742C319.373 18.454 320.662 17.415 322.258 16.616L321.212 15.256C319.356 16.185 317.848 17.402 316.696 18.898L318.382 19.742ZM322.258 16.616C323.819 15.835 325.57 15.44 327.539 15.44V13.84C325.222 13.84 323.104 14.309 321.212 15.256L322.258 16.616ZM327.539 15.44H357.004V13.84H327.539V15.44ZM357.004 15.44C358.974 15.44 360.725 15.835 362.282 16.616L363.329 15.256C361.439 14.309 359.321 13.84 357.004 13.84V15.44ZM362.297 16.622C363.944 17.42 365.224 18.453 366.146 19.724L367.857 18.916C366.761 17.403 365.238 16.18 363.319 15.25L362.297 16.622ZM366.161 19.742C367.128 21 367.619 22.412 367.619 24H369.603C369.603 22.132 369.018 20.424 367.848 18.898L366.161 19.742ZM367.619 24V25.08H369.603V24H367.619ZM368.611 24.28H358.879V25.88H368.611V24.28ZM359.871 25.08V24.216H357.887V25.08H359.871ZM359.871 24.216C359.871 23.526 359.559 22.914 358.954 22.426L357.55 23.558C357.778 23.742 357.887 23.946 357.887 24.216H359.871ZM358.998 22.465C358.408 21.92 357.634 21.616 356.737 21.616V23.216C357.024 23.216 357.262 23.296 357.505 23.519L358.998 22.465ZM356.737 21.616H327.807V23.216H356.737V21.616ZM327.807 21.616C326.913 21.616 326.134 21.914 325.498 22.426L326.901 23.558C327.218 23.302 327.51 23.216 327.807 23.216V21.616ZM325.498 22.426C324.893 22.914 324.583 23.526 324.583 24.216H326.567C326.567 23.946 326.672 23.742 326.901 23.558L325.498 22.426ZM324.583 24.216V29.832H326.567V24.216H324.583ZM324.583 29.832C324.583 30.519 324.889 31.135 325.453 31.655L326.946 30.601C326.677 30.353 326.567 30.105 326.567 29.832H324.583ZM325.546 31.73C326.191 32.185 326.955 32.432 327.807 32.432V30.832C327.468 30.832 327.161 30.743 326.853 30.526L325.546 31.73ZM327.807 32.432H357.004V30.832H327.807V32.432ZM357.004 32.432C358.974 32.432 360.725 32.827 362.282 33.608L363.329 32.248C361.439 31.301 359.321 30.832 357.004 30.832V32.432ZM362.317 33.624C363.949 34.369 365.219 35.392 366.141 36.706L367.867 35.918C366.766 34.352 365.238 33.119 363.294 32.232L362.317 33.624ZM366.161 36.734C367.128 37.992 367.619 39.404 367.619 40.992H369.603C369.603 39.124 369.018 37.416 367.848 35.89L366.161 36.734ZM367.619 40.992V47.04H369.603V40.992H367.619ZM367.619 47.04C367.619 48.628 367.128 50.04 366.161 51.298L367.848 52.142C369.018 50.616 369.603 48.908 369.603 47.04H367.619ZM366.146 51.316C365.224 52.587 363.944 53.62 362.297 54.418L363.319 55.79C365.238 54.86 366.761 53.637 367.857 52.124L366.146 51.316ZM362.282 54.424C360.725 55.205 358.974 55.6 357.004 55.6V57.2C359.321 57.2 361.439 56.731 363.329 55.784L362.282 54.424ZM357.004 55.6H327.539V57.2H357.004V55.6ZM385.982 55.104L385.456 55.784L385.461 55.787L385.471 55.79L385.982 55.104ZM381.786 51.72L380.928 52.124L380.933 52.133L380.943 52.142L381.786 51.72ZM380.268 1.46399V0.664001H379.276V1.46399H380.268ZM389.911 1.46399H390.903V0.664001H389.911V1.46399ZM389.911 14.64H388.919V15.44H389.911V14.64ZM411.16 14.64H412.153V13.84H411.16V14.64ZM411.16 22.416V23.216H412.153V22.416H411.16ZM389.911 22.416V21.616H388.919V22.416H389.911ZM390.536 48.12L389.787 48.647L389.831 48.687L389.881 48.722L390.536 48.12ZM411.16 48.624H412.153V47.824H411.16V48.624ZM411.16 56.4V57.2H412.153V56.4H411.16ZM391.875 55.6C389.906 55.6 388.115 55.205 386.488 54.418L385.471 55.79C387.416 56.731 389.554 57.2 391.875 57.2V55.6ZM386.503 54.424C384.906 53.625 383.616 52.586 382.624 51.298L380.943 52.142C382.093 53.638 383.601 54.855 385.456 55.784L386.503 54.424ZM382.639 51.316C381.721 50.055 381.26 48.636 381.26 47.04H379.276C379.276 48.9 379.822 50.601 380.928 52.124L382.639 51.316ZM381.26 47.04V1.46399H379.276V47.04H381.26ZM380.268 2.26401H389.911V0.664001H380.268V2.26401ZM388.919 1.46399V14.64H390.903V1.46399H388.919ZM389.911 15.44H411.16V13.84H389.911V15.44ZM410.168 14.64V22.416H412.153V14.64H410.168ZM411.16 21.616H389.911V23.216H411.16V21.616ZM388.919 22.416V46.824H390.903V22.416H388.919ZM388.919 46.824C388.919 47.511 389.221 48.127 389.787 48.647L391.28 47.593C391.012 47.345 390.903 47.097 390.903 46.824H388.919ZM389.881 48.722C390.526 49.177 391.29 49.424 392.143 49.424V47.824C391.801 47.824 391.493 47.735 391.186 47.518L389.881 48.722ZM392.143 49.424H411.16V47.824H392.143V49.424ZM410.168 48.624V56.4H412.153V48.624H410.168ZM411.16 55.6H391.875V57.2H411.16V55.6ZM426.587 55.104L426.066 55.784L426.071 55.787L426.076 55.79L426.587 55.104ZM422.391 51.72L421.532 52.124L421.542 52.133L421.547 52.142L422.391 51.72ZM420.873 14.64V13.84H419.881V14.64H420.873ZM430.515 14.64H431.507V13.84H430.515V14.64ZM431.14 48.12L430.391 48.647L430.436 48.687L430.486 48.722L431.14 48.12ZM463.908 14.64V13.84H462.916V14.64H463.908ZM473.551 14.64H474.543V13.84H473.551V14.64ZM471.943 51.72L471.1 51.298L471.095 51.307L471.085 51.316L471.943 51.72ZM467.747 55.104L467.236 54.418L467.231 54.421L467.226 54.424L467.747 55.104ZM432.48 55.6C430.51 55.6 428.725 55.205 427.098 54.418L426.076 55.79C428.02 56.731 430.163 57.2 432.48 57.2V55.6ZM427.108 54.424C425.515 53.625 424.226 52.586 423.234 51.298L421.547 52.142C422.698 53.638 424.206 54.855 426.066 55.784L427.108 54.424ZM423.249 51.316C422.331 50.055 421.865 48.636 421.865 47.04H419.881C419.881 48.9 420.426 50.601 421.532 52.124L423.249 51.316ZM421.865 47.04V14.64H419.881V47.04H421.865ZM420.873 15.44H430.515V13.84H420.873V15.44ZM429.523 14.64V46.824H431.507V14.64H429.523ZM429.523 46.824C429.523 47.511 429.831 48.127 430.391 48.647L431.889 47.593C431.617 47.345 431.507 47.097 431.507 46.824H429.523ZM430.486 48.722C431.13 49.177 431.894 49.424 432.748 49.424V47.824C432.41 47.824 432.103 47.735 431.795 47.518L430.486 48.722ZM432.748 49.424H461.676V47.824H432.748V49.424ZM461.676 49.424C462.529 49.424 463.288 49.174 463.893 48.686L462.494 47.554C462.266 47.738 462.013 47.824 461.676 47.824V49.424ZM463.893 48.686C464.533 48.173 464.9 47.545 464.9 46.824H462.916C462.916 47.063 462.807 47.299 462.494 47.554L463.893 48.686ZM464.9 46.824V14.64H462.916V46.824H464.9ZM463.908 15.44H473.551V13.84H463.908V15.44ZM472.558 14.64V47.04H474.543V14.64H472.558ZM472.558 47.04C472.558 48.628 472.067 50.04 471.1 51.298L472.787 52.142C473.962 50.616 474.543 48.908 474.543 47.04H472.558ZM471.085 51.316C470.163 52.587 468.888 53.62 467.236 54.418L468.258 55.79C470.178 54.86 471.7 53.637 472.802 52.124L471.085 51.316ZM467.226 54.424C465.664 55.205 463.913 55.6 461.944 55.6V57.2C464.26 57.2 466.378 56.731 468.268 55.784L467.226 54.424ZM461.944 55.6H432.48V57.2H461.944V55.6ZM489.19 55.176L488.669 55.856L488.684 55.864L488.699 55.872L489.19 55.176ZM484.994 51.72L484.131 52.114L484.136 52.123L484.146 52.132L484.994 51.72ZM484.994 19.32L484.151 18.898L484.146 18.907L484.141 18.916L484.994 19.32ZM489.19 15.936L488.679 15.25L488.674 15.253L488.669 15.256L489.19 15.936ZM526.51 14.64V15.44H527.5V14.64H526.51ZM526.51 0.959991V0.160004H525.52V0.959991H526.51ZM536.15 0.959991H537.15V0.160004H536.15V0.959991ZM536.15 56.4V57.2H537.15V56.4H536.15ZM525.89 48.12L526.59 48.686L526.61 48.667L526.64 48.647L525.89 48.12ZM525.89 22.992L525.14 23.519L525.16 23.539L525.19 23.558L525.89 22.992ZM493.833 48.12L493.089 48.647L493.129 48.687L493.178 48.722L493.833 48.12ZM495.083 55.6C493.104 55.6 491.308 55.225 489.681 54.48L488.699 55.872C490.644 56.759 492.776 57.2 495.083 57.2V55.6ZM489.716 54.496C488.124 53.701 486.839 52.642 485.847 51.308L484.146 52.132C485.296 53.678 486.804 54.923 488.669 55.856L489.716 54.496ZM485.857 51.326C484.929 50.008 484.468 48.584 484.468 47.04H482.484C482.484 48.856 483.035 50.552 484.131 52.114L485.857 51.326ZM484.468 47.04V24H482.484V47.04H484.468ZM484.468 24C484.468 22.404 484.934 20.985 485.852 19.724L484.141 18.916C483.03 20.439 482.484 22.14 482.484 24H484.468ZM485.837 19.742C486.829 18.454 488.119 17.415 489.716 16.616L488.669 15.256C486.809 16.185 485.301 17.402 484.151 18.898L485.837 19.742ZM489.701 16.622C491.328 15.835 493.114 15.44 495.083 15.44V13.84C492.767 13.84 490.624 14.309 488.679 15.25L489.701 16.622ZM495.083 15.44H526.51V13.84H495.083V15.44ZM527.5 14.64V0.959991H525.52V14.64H527.5ZM526.51 1.76001H536.15V0.160004H526.51V1.76001ZM535.16 0.959991V56.4H537.15V0.959991H535.16ZM536.15 55.6H495.083V57.2H536.15V55.6ZM495.44 49.424H524.37V47.824H495.44V49.424ZM524.37 49.424C525.23 49.424 525.99 49.174 526.59 48.686L525.19 47.554C524.96 47.738 524.71 47.824 524.37 47.824V49.424ZM526.64 48.647C527.2 48.127 527.5 47.511 527.5 46.824H525.52C525.52 47.097 525.41 47.345 525.14 47.593L526.64 48.647ZM527.5 46.824V24.216H525.52V46.824H527.5ZM527.5 24.216C527.5 23.526 527.19 22.914 526.59 22.426L525.19 23.558C525.42 23.742 525.52 23.946 525.52 24.216H527.5ZM526.64 22.465C526.04 21.92 525.27 21.616 524.37 21.616V23.216C524.66 23.216 524.9 23.296 525.14 23.519L526.64 22.465ZM524.37 21.616H495.44V23.216H524.37V21.616ZM495.44 21.616C494.547 21.616 493.769 21.914 493.134 22.426L494.537 23.558C494.85 23.302 495.143 23.216 495.44 23.216V21.616ZM493.134 22.426C492.529 22.914 492.216 23.526 492.216 24.216H494.2C494.2 23.946 494.304 23.742 494.537 23.558L493.134 22.426ZM492.216 24.216V46.824H494.2V24.216H492.216ZM492.216 46.824C492.216 47.511 492.523 48.127 493.089 48.647L494.582 47.593C494.309 47.345 494.2 47.097 494.2 46.824H492.216ZM493.178 48.722C493.823 49.177 494.587 49.424 495.44 49.424V47.824C495.103 47.824 494.795 47.735 494.488 47.518L493.178 48.722ZM548.3 56.4H547.3V57.2H548.3V56.4ZM548.3 14.64V13.84H547.3V14.64H548.3ZM557.94 14.64H558.93V13.84H557.94V14.64ZM557.94 56.4V57.2H558.93V56.4H557.94ZM548.3 8.73599H547.3V9.53601H548.3V8.73599ZM548.3 0.959991V0.160004H547.3V0.959991H548.3ZM557.94 0.959991H558.93V0.160004H557.94V0.959991ZM557.94 8.73599V9.53601H558.93V8.73599H557.94ZM549.29 56.4V14.64H547.3V56.4H549.29ZM548.3 15.44H557.94V13.84H548.3V15.44ZM556.95 14.64V56.4H558.93V14.64H556.95ZM557.94 55.6H548.3V57.2H557.94V55.6ZM549.29 8.73599V0.959991H547.3V8.73599H549.29ZM548.3 1.76001H557.94V0.160004H548.3V1.76001ZM556.95 0.959991V8.73599H558.93V0.959991H556.95ZM557.94 7.936H548.3V9.53601H557.94V7.936ZM617.03 15.936L616.51 16.616L616.52 16.624L616.54 16.632L617.03 15.936ZM621.23 19.32L620.36 19.714L620.37 19.723V19.732L621.23 19.32ZM621.23 51.72L620.38 51.298L620.37 51.307V51.316L621.23 51.72ZM617.03 55.104L616.52 54.418V54.421L616.51 54.424L617.03 55.104ZM612.48 48.12L613.18 48.686L613.2 48.667L613.22 48.647L612.48 48.12ZM612.48 22.992L611.73 23.519L611.75 23.539L611.77 23.558L612.48 22.992ZM580.42 48.12L579.68 48.647L579.72 48.687L579.77 48.722L580.42 48.12ZM581.76 55.6C579.79 55.6 578.04 55.205 576.48 54.424L575.43 55.784C577.33 56.731 579.45 57.2 581.76 57.2V55.6ZM576.48 54.424C574.88 53.625 573.59 52.586 572.61 51.298L570.92 52.142C572.07 53.638 573.58 54.855 575.43 55.784L576.48 54.424ZM572.61 51.298C571.63 50.04 571.15 48.628 571.15 47.04H569.16C569.16 48.908 569.74 50.616 570.92 52.142L572.61 51.298ZM571.15 47.04V24H569.16V47.04H571.15ZM571.15 24C571.15 22.412 571.63 21 572.61 19.742L570.92 18.898C569.74 20.424 569.16 22.132 569.16 24H571.15ZM572.61 19.742C573.59 18.454 574.88 17.415 576.48 16.616L575.43 15.256C573.58 16.185 572.07 17.402 570.92 18.898L572.61 19.742ZM576.48 16.616C578.04 15.835 579.79 15.44 581.76 15.44V13.84C579.45 13.84 577.33 14.309 575.43 15.256L576.48 16.616ZM581.76 15.44H611.23V13.84H581.76V15.44ZM611.23 15.44C613.2 15.44 614.95 15.835 616.51 16.616L617.55 15.256C615.66 14.309 613.54 13.84 611.23 13.84V15.44ZM616.54 16.632C618.17 17.377 619.44 18.4 620.36 19.714L622.09 18.926C620.99 17.36 619.46 16.127 617.52 15.24L616.54 16.632ZM620.37 19.732C621.36 21.047 621.84 22.465 621.84 24H623.83C623.83 22.175 623.24 20.473 622.08 18.908L620.37 19.732ZM621.84 24V47.04H623.83V24H621.84ZM621.84 47.04C621.84 48.628 621.35 50.04 620.38 51.298L622.07 52.142C623.24 50.616 623.83 48.908 623.83 47.04H621.84ZM620.37 51.316C619.45 52.587 618.17 53.62 616.52 54.418L617.54 55.79C619.46 54.86 620.98 53.637 622.08 52.124L620.37 51.316ZM616.51 54.424C614.95 55.205 613.2 55.6 611.23 55.6V57.2C613.54 57.2 615.66 56.731 617.55 55.784L616.51 54.424ZM611.23 55.6H581.76V57.2H611.23V55.6ZM582.03 49.424H610.96V47.824H582.03V49.424ZM610.96 49.424C611.81 49.424 612.57 49.174 613.18 48.686L611.77 47.554C611.54 47.738 611.29 47.824 610.96 47.824V49.424ZM613.22 48.647C613.79 48.127 614.09 47.511 614.09 46.824H612.11C612.11 47.097 612 47.345 611.73 47.593L613.22 48.647ZM614.09 46.824V24.216H612.11V46.824H614.09ZM614.09 24.216C614.09 23.526 613.78 22.914 613.18 22.426L611.77 23.558C612 23.742 612.11 23.946 612.11 24.216H614.09ZM613.22 22.465C612.63 21.92 611.86 21.616 610.96 21.616V23.216C611.25 23.216 611.49 23.296 611.73 23.519L613.22 22.465ZM610.96 21.616H582.03V23.216H610.96V21.616ZM582.03 21.616C581.14 21.616 580.35 21.914 579.72 22.426L581.12 23.558C581.44 23.302 581.73 23.216 582.03 23.216V21.616ZM579.72 22.426C579.11 22.914 578.81 23.526 578.81 24.216H580.79C580.79 23.946 580.9 23.742 581.12 23.558L579.72 22.426ZM578.81 24.216V46.824H580.79V24.216H578.81ZM578.81 46.824C578.81 47.511 579.11 48.127 579.68 48.647L581.17 47.593C580.9 47.345 580.79 47.097 580.79 46.824H578.81ZM579.77 48.722C580.41 49.177 581.18 49.424 582.03 49.424V47.824C581.69 47.824 581.38 47.735 581.07 47.518L579.77 48.722Z" fill="#323232"/>
</g>
<path d="M26.895 65.349L31.066 52.863H24V42.766H34.472L38.303 31.898H26.469V21.801H41.879L46.221 9.854H57.629L53.117 21.801H68.101L72.444 9.854H83.767L79.255 21.801H85.725V31.898H75.764L71.933 42.766H83.256V52.863H68.272L64.27 65.349H52.947L57.204 52.863H42.134L38.133 65.349H26.895ZM45.795 42.766H60.609L64.526 31.898H49.627L45.795 42.766ZM93.632 65.349V16.637C93.632 14.684 94.172 12.912 95.249 11.318C96.328 9.72499 97.747 8.44099 99.506 7.46399C101.266 6.48799 103.224 6 105.381 6H124.026V16.174H105.807C105.523 16.174 105.268 16.277 105.04 16.482C104.87 16.637 104.785 16.842 104.785 17.099V20.645H124.026V30.742H104.785V65.349H93.632ZM130.13 65.349V31.281C130.13 29.329 130.669 27.556 131.748 25.963C132.825 24.37 134.245 23.086 136.004 22.109C137.82 21.133 139.779 20.645 141.879 20.645H169.293V30.742H142.305C142.02 30.742 141.765 30.844 141.538 31.05C141.368 31.204 141.283 31.41 141.283 31.667V65.349H130.13ZM186.441 65.349C184.285 65.349 182.326 64.862 180.567 63.885C178.807 62.908 177.388 61.624 176.31 60.031C175.231 58.438 174.692 56.665 174.692 54.713V31.281C174.692 29.329 175.231 27.556 176.31 25.963C177.388 24.37 178.807 23.086 180.567 22.109C182.326 21.133 184.285 20.645 186.441 20.645H213.089C215.246 20.645 217.204 21.133 218.964 22.109C220.78 23.086 222.199 24.37 223.221 25.963C224.299 27.556 224.838 29.329 224.838 31.281V54.713C224.838 56.665 224.299 58.438 223.221 60.031C222.199 61.624 220.809 62.908 219.049 63.885C217.289 64.862 215.303 65.349 213.089 65.349H186.441ZM186.867 55.252H212.664C212.947 55.252 213.174 55.175 213.345 55.021C213.572 54.815 213.685 54.584 213.685 54.327V31.667C213.685 31.41 213.572 31.204 213.345 31.05C213.174 30.844 212.947 30.742 212.664 30.742H186.867C186.583 30.742 186.328 30.844 186.101 31.05C185.93 31.204 185.845 31.41 185.845 31.667V54.327C185.845 54.584 185.93 54.815 186.101 55.021C186.328 55.175 186.583 55.252 186.867 55.252ZM241.048 83V72.826H270.761C271.044 72.826 271.271 72.723 271.442 72.518C271.668 72.363 271.782 72.158 271.782 71.901V65.349H244.538C242.438 65.349 240.48 64.862 238.664 63.885C236.904 62.908 235.485 61.624 234.407 60.031C233.328 58.438 232.789 56.665 232.789 54.713V31.281C232.789 29.329 233.328 27.556 234.407 25.963C235.485 24.37 236.904 23.086 238.664 22.109C240.48 21.133 242.438 20.645 244.538 20.645H271.271C273.428 20.645 275.386 21.133 277.146 22.109C278.905 23.086 280.296 24.37 281.318 25.963C282.395 27.556 282.935 29.329 282.935 31.281V72.363C282.935 74.367 282.425 76.166 281.403 77.759C280.381 79.352 278.962 80.611 277.146 81.536C275.386 82.512 273.428 83 271.271 83H241.048ZM244.964 55.252H270.761C271.044 55.252 271.271 55.175 271.442 55.021C271.668 54.815 271.782 54.584 271.782 54.327V31.667C271.782 31.41 271.668 31.204 271.442 31.05C271.271 30.844 271.044 30.742 270.761 30.742H244.964C244.679 30.742 244.424 30.844 244.198 31.05C244.027 31.204 243.942 31.41 243.942 31.667V54.327C243.942 54.584 244.027 54.815 244.198 55.021C244.424 55.175 244.679 55.252 244.964 55.252ZM292.012 65.349V55.252H303.165V65.349H292.012ZM322.54 65.349C320.382 65.349 318.424 64.862 316.665 63.885C314.905 62.908 313.486 61.624 312.408 60.031C311.329 58.438 310.791 56.665 310.791 54.713V53.017H321.944V54.327C321.944 54.584 322.029 54.815 322.199 55.021C322.425 55.175 322.681 55.252 322.965 55.252H348.766C349.046 55.252 349.277 55.175 349.447 55.021C349.667 54.815 349.788 54.584 349.788 54.327V49.009C349.788 48.752 349.667 48.547 349.447 48.392C349.277 48.187 349.046 48.084 348.766 48.084H322.54C320.382 48.084 318.424 47.596 316.665 46.62C314.905 45.643 313.486 44.359 312.408 42.766C311.329 41.173 310.791 39.4 310.791 37.447V31.281C310.791 29.329 311.329 27.556 312.408 25.963C313.486 24.37 314.905 23.086 316.665 22.109C318.424 21.133 320.382 20.645 322.54 20.645H349.187C351.4 20.645 353.384 21.133 355.146 22.109C356.909 23.086 358.322 24.37 359.403 25.963C360.485 27.556 361.026 29.329 361.026 31.281V32.977H349.788V31.667C349.788 31.41 349.667 31.204 349.447 31.05C349.277 30.844 349.046 30.742 348.766 30.742H322.965C322.681 30.742 322.425 30.844 322.199 31.05C322.029 31.204 321.944 31.41 321.944 31.667V36.985C321.944 37.242 322.029 37.473 322.199 37.679C322.425 37.833 322.681 37.91 322.965 37.91H349.187C351.4 37.91 353.384 38.398 355.146 39.374C356.909 40.351 358.322 41.635 359.403 43.228C360.485 44.821 361.026 46.594 361.026 48.547V54.713C361.026 56.665 360.485 58.438 359.403 60.031C358.322 61.624 356.909 62.908 355.146 63.885C353.384 64.862 351.4 65.349 349.187 65.349H322.54ZM381.329 65.349C379.175 65.349 377.212 64.862 375.459 63.885C373.696 62.908 372.274 61.624 371.202 60.031C370.121 58.438 369.58 56.665 369.58 54.713V6.92499H380.738V20.645H399.979V30.742H380.738V54.327C380.738 54.584 380.818 54.815 380.988 55.021C381.219 55.175 381.469 55.252 381.759 55.252H399.979V65.349H381.329ZM418.659 65.349C416.506 65.349 414.523 64.862 412.7 63.885C410.947 62.908 409.524 61.624 408.443 60.031C407.421 58.438 406.91 56.665 406.91 54.713V20.645H418.068V54.327C418.068 54.584 418.148 54.815 418.319 55.021C418.549 55.175 418.799 55.252 419.09 55.252H444.882C445.172 55.252 445.392 55.175 445.563 55.021C445.793 54.815 445.903 54.584 445.903 54.327V20.645H457.061V54.713C457.061 56.665 456.52 58.438 455.439 60.031C454.417 61.624 453.025 62.908 451.272 63.885C449.509 64.862 447.526 65.349 445.312 65.349H418.659ZM475.551 65.349C473.338 65.349 471.355 64.862 469.592 63.885C467.839 62.908 466.417 61.624 465.335 60.031C464.313 58.438 463.802 56.665 463.802 54.713V31.281C463.802 29.329 464.313 27.556 465.335 25.963C466.417 24.37 467.839 23.086 469.592 22.109C471.355 21.133 473.338 20.645 475.551 20.645H502.886V6H514.034V65.349H475.551ZM476.062 55.252H501.864C502.144 55.252 502.375 55.175 502.545 55.021C502.775 54.815 502.886 54.584 502.886 54.327V31.667C502.886 31.41 502.775 31.204 502.545 31.05C502.375 30.844 502.144 30.742 501.864 30.742H476.062C475.782 30.742 475.531 30.844 475.301 31.05C475.131 31.204 475.041 31.41 475.041 31.667V54.327C475.041 54.584 475.131 54.815 475.301 55.021C475.531 55.175 475.782 55.252 476.062 55.252ZM523.06 65.349V20.645H534.22V65.349H523.06ZM523.06 16.174V6H534.22V16.174H523.06ZM553.6 65.349C551.44 65.349 549.48 64.862 547.73 63.885C545.97 62.908 544.54 61.624 543.47 60.031C542.39 58.438 541.85 56.665 541.85 54.713V31.281C541.85 29.329 542.39 27.556 543.47 25.963C544.54 24.37 545.97 23.086 547.73 22.109C549.48 21.133 551.44 20.645 553.6 20.645H580.25C582.4 20.645 584.36 21.133 586.12 22.109C587.93 23.086 589.36 24.37 590.38 25.963C591.46 27.556 592 29.329 592 31.281V54.713C592 56.665 591.46 58.438 590.38 60.031C589.36 61.624 587.96 62.908 586.21 63.885C584.45 64.862 582.46 65.349 580.25 65.349H553.6ZM554.03 55.252H579.82C580.1 55.252 580.33 55.175 580.5 55.021C580.73 54.815 580.84 54.584 580.84 54.327V31.667C580.84 31.41 580.73 31.204 580.5 31.05C580.33 30.844 580.1 30.742 579.82 30.742H554.03C553.74 30.742 553.49 30.844 553.26 31.05C553.09 31.204 553.01 31.41 553.01 31.667V54.327C553.01 54.584 553.09 54.815 553.26 55.021C553.49 55.175 553.74 55.252 554.03 55.252Z" fill="white"/>
<path d="M606.5 65C610.64 65 614 61.866 614 58C614 54.134 610.64 51 606.5 51C602.36 51 599 54.134 599 58C599 61.866 602.36 65 606.5 65Z" fill="#AAFF00"/>
<path d="M631.5 65C635.64 65 639 61.866 639 58C639 54.134 635.64 51 631.5 51C627.36 51 624 54.134 624 58C624 61.866 627.36 65 631.5 65Z" fill="#AAFF00"/>
<path d="M656.5 65C660.64 65 664 61.866 664 58C664 54.134 660.64 51 656.5 51C652.36 51 649 54.134 649 58C649 61.866 652.36 65 656.5 65Z" fill="#AAFF00"/>
</svg>
