<svg width="359" height="161" viewBox="0 0 359 161" fill="none" xmlns="http://www.w3.org/2000/svg">
<path d="M301.5 161C305.64 161 309 157.866 309 154C309 150.134 305.64 147 301.5 147C297.36 147 294 150.134 294 154C294 157.866 297.36 161 301.5 161Z" fill="#AAFF00"/>
<path d="M326.5 161C330.64 161 334 157.866 334 154C334 150.134 330.64 147 326.5 147C322.36 147 319 150.134 319 154C319 157.866 322.36 161 326.5 161Z" fill="#AAFF00"/>
<path d="M351.5 161C355.64 161 359 157.866 359 154C359 150.134 355.64 147 351.5 147C347.36 147 344 150.134 344 154C344 157.866 347.36 161 351.5 161Z" fill="#AAFF00"/>
<mask id="path-4-outside-1_0_1" maskUnits="userSpaceOnUse" x="-1" y="-1" width="278" height="81" fill="black">
<rect fill="white" x="-1" y="-1" width="278" height="81"/>
<path d="M3.148 61L6.97 48.364H0.496V38.146H10.09L13.6 27.148H2.758V16.93H16.876L20.854 4.84H31.306L27.172 16.93H40.9L44.878 4.84H55.252L51.118 16.93H57.046V27.148H47.92L44.41 38.146H54.784V48.364H41.056L37.39 61H27.016L30.916 48.364H17.11L13.444 61H3.148ZM20.464 38.146H34.036L37.624 27.148H23.974L20.464 38.146ZM68.1903 61V11.704C68.1903 9.728 68.6843 7.934 69.6723 6.322C70.6603 4.71 71.9603 3.41 73.5723 2.422C75.1843 1.434 76.9783 0.939997 78.9543 0.939997H96.0363V11.236H79.3443C79.0843 11.236 78.8503 11.34 78.6423 11.548C78.4863 11.704 78.4083 11.912 78.4083 12.172V15.76H96.0363V25.978H78.4083V61H68.1903ZM105.528 61V26.524C105.528 24.548 106.022 22.754 107.01 21.142C107.998 19.53 109.298 18.23 110.91 17.242C112.574 16.254 114.368 15.76 116.292 15.76H141.408V25.978H116.682C116.422 25.978 116.188 26.082 115.98 26.29C115.824 26.446 115.746 26.654 115.746 26.914V61H105.528ZM161.018 61C159.042 61 157.248 60.506 155.636 59.518C154.024 58.53 152.724 57.23 151.736 55.618C150.748 54.006 150.254 52.212 150.254 50.236V26.524C150.254 24.548 150.748 22.754 151.736 21.142C152.724 19.53 154.024 18.23 155.636 17.242C157.248 16.254 159.042 15.76 161.018 15.76H185.432C187.408 15.76 189.202 16.254 190.814 17.242C192.478 18.23 193.778 19.53 194.714 21.142C195.702 22.754 196.196 24.548 196.196 26.524V50.236C196.196 52.212 195.702 54.006 194.714 55.618C193.778 57.23 192.504 58.53 190.892 59.518C189.28 60.506 187.46 61 185.432 61H161.018ZM161.408 50.782H185.042C185.302 50.782 185.51 50.704 185.666 50.548C185.874 50.34 185.978 50.106 185.978 49.846V26.914C185.978 26.654 185.874 26.446 185.666 26.29C185.51 26.082 185.302 25.978 185.042 25.978H161.408C161.148 25.978 160.914 26.082 160.706 26.29C160.55 26.446 160.472 26.654 160.472 26.914V49.846C160.472 50.106 160.55 50.34 160.706 50.548C160.914 50.704 161.148 50.782 161.408 50.782ZM214.946 78.862V68.566H242.168C242.428 68.566 242.636 68.462 242.792 68.254C243 68.098 243.104 67.89 243.104 67.63V61H218.144C216.22 61 214.426 60.506 212.762 59.518C211.15 58.53 209.85 57.23 208.862 55.618C207.874 54.006 207.38 52.212 207.38 50.236V26.524C207.38 24.548 207.874 22.754 208.862 21.142C209.85 19.53 211.15 18.23 212.762 17.242C214.426 16.254 216.22 15.76 218.144 15.76H242.636C244.612 15.76 246.406 16.254 248.018 17.242C249.63 18.23 250.904 19.53 251.84 21.142C252.828 22.754 253.322 24.548 253.322 26.524V68.098C253.322 70.126 252.854 71.946 251.918 73.558C250.982 75.17 249.682 76.444 248.018 77.38C246.406 78.368 244.612 78.862 242.636 78.862H214.946ZM218.534 50.782H242.168C242.428 50.782 242.636 50.704 242.792 50.548C243 50.34 243.104 50.106 243.104 49.846V26.914C243.104 26.654 243 26.446 242.792 26.29C242.636 26.082 242.428 25.978 242.168 25.978H218.534C218.274 25.978 218.04 26.082 217.832 26.29C217.676 26.446 217.598 26.654 217.598 26.914V49.846C217.598 50.106 217.676 50.34 217.832 50.548C218.04 50.704 218.274 50.782 218.534 50.782ZM265.538 61V50.782H275.756V61H265.538Z"/>
</mask>
<path d="M3.148 61L2.19083 60.7105L1.80079 62H3.148V61ZM6.97 48.364L7.92717 48.6535L8.31721 47.364H6.97V48.364ZM0.496 48.364H-0.504V49.364H0.496V48.364ZM0.496 38.146V37.146H-0.504V38.146H0.496ZM10.09 38.146V39.146H10.8205L11.0427 38.45L10.09 38.146ZM13.6 27.148L14.5527 27.452L14.9688 26.148H13.6V27.148ZM2.758 27.148H1.758V28.148H2.758V27.148ZM2.758 16.93V15.93H1.758V16.93H2.758ZM16.876 16.93V17.93H17.5997L17.8259 17.2425L16.876 16.93ZM20.854 4.84V3.84H20.1303L19.9041 4.52745L20.854 4.84ZM31.306 4.84L32.2522 5.16354L32.7048 3.84H31.306V4.84ZM27.172 16.93L26.2258 16.6065L25.7732 17.93H27.172V16.93ZM40.9 16.93V17.93H41.6237L41.8499 17.2425L40.9 16.93ZM44.878 4.84V3.84H44.1543L43.9281 4.52745L44.878 4.84ZM55.252 4.84L56.1982 5.16354L56.6508 3.84H55.252V4.84ZM51.118 16.93L50.1718 16.6065L49.7192 17.93H51.118V16.93ZM57.046 16.93H58.046V15.93H57.046V16.93ZM57.046 27.148V28.148H58.046V27.148H57.046ZM47.92 27.148V26.148H47.1895L46.9673 26.844L47.92 27.148ZM44.41 38.146L43.4573 37.842L43.0412 39.146H44.41V38.146ZM54.784 38.146H55.784V37.146H54.784V38.146ZM54.784 48.364V49.364H55.784V48.364H54.784ZM41.056 48.364V47.364H40.3049L40.0956 48.0854L41.056 48.364ZM37.39 61V62H38.1411L38.3504 61.2786L37.39 61ZM27.016 61L26.0605 60.7051L25.6608 62H27.016V61ZM30.916 48.364L31.8715 48.6589L32.2712 47.364H30.916V48.364ZM17.11 48.364V47.364H16.3589L16.1496 48.0854L17.11 48.364ZM13.444 61V62H14.1951L14.4044 61.2786L13.444 61ZM20.464 38.146L19.5113 37.842L19.0952 39.146H20.464V38.146ZM34.036 38.146V39.146H34.7616L34.9867 38.4562L34.036 38.146ZM37.624 27.148L38.5747 27.4582L39.0021 26.148H37.624V27.148ZM23.974 27.148V26.148H23.2435L23.0213 26.844L23.974 27.148ZM4.10517 61.2895L7.92717 48.6535L6.01283 48.0745L2.19083 60.7105L4.10517 61.2895ZM6.97 47.364H0.496V49.364H6.97V47.364ZM1.496 48.364V38.146H-0.504V48.364H1.496ZM0.496 39.146H10.09V37.146H0.496V39.146ZM11.0427 38.45L14.5527 27.452L12.6473 26.844L9.13734 37.842L11.0427 38.45ZM13.6 26.148H2.758V28.148H13.6V26.148ZM3.758 27.148V16.93H1.758V27.148H3.758ZM2.758 17.93H16.876V15.93H2.758V17.93ZM17.8259 17.2425L21.8039 5.15255L19.9041 4.52745L15.9261 16.6175L17.8259 17.2425ZM20.854 5.84H31.306V3.84H20.854V5.84ZM30.3598 4.51645L26.2258 16.6065L28.1182 17.2535L32.2522 5.16354L30.3598 4.51645ZM27.172 17.93H40.9V15.93H27.172V17.93ZM41.8499 17.2425L45.8279 5.15255L43.9281 4.52745L39.9501 16.6175L41.8499 17.2425ZM44.878 5.84H55.252V3.84H44.878V5.84ZM54.3058 4.51645L50.1718 16.6065L52.0642 17.2535L56.1982 5.16354L54.3058 4.51645ZM51.118 17.93H57.046V15.93H51.118V17.93ZM56.046 16.93V27.148H58.046V16.93H56.046ZM57.046 26.148H47.92V28.148H57.046V26.148ZM46.9673 26.844L43.4573 37.842L45.3627 38.45L48.8727 27.452L46.9673 26.844ZM44.41 39.146H54.784V37.146H44.41V39.146ZM53.784 38.146V48.364H55.784V38.146H53.784ZM54.784 47.364H41.056V49.364H54.784V47.364ZM40.0956 48.0854L36.4296 60.7214L38.3504 61.2786L42.0164 48.6426L40.0956 48.0854ZM37.39 60H27.016V62H37.39V60ZM27.9715 61.2949L31.8715 48.6589L29.9605 48.0691L26.0605 60.7051L27.9715 61.2949ZM30.916 47.364H17.11V49.364H30.916V47.364ZM16.1496 48.0854L12.4836 60.7214L14.4044 61.2786L18.0704 48.6426L16.1496 48.0854ZM13.444 60H3.148V62H13.444V60ZM20.464 39.146H34.036V37.146H20.464V39.146ZM34.9867 38.4562L38.5747 27.4582L36.6733 26.8378L33.0853 37.8358L34.9867 38.4562ZM37.624 26.148H23.974V28.148H37.624V26.148ZM23.0213 26.844L19.5113 37.842L21.4167 38.45L24.9267 27.452L23.0213 26.844ZM68.1903 61H67.1903V62H68.1903V61ZM96.0363 0.939997H97.0363V-0.0600032H96.0363V0.939997ZM96.0363 11.236V12.236H97.0363V11.236H96.0363ZM78.6423 11.548L79.3494 12.2551L79.3494 12.2551L78.6423 11.548ZM78.4083 15.76H77.4083V16.76H78.4083V15.76ZM96.0363 15.76H97.0363V14.76H96.0363V15.76ZM96.0363 25.978V26.978H97.0363V25.978H96.0363ZM78.4083 25.978V24.978H77.4083V25.978H78.4083ZM78.4083 61V62H79.4083V61H78.4083ZM69.1903 61V11.704H67.1903V61H69.1903ZM69.1903 11.704C69.1903 9.90373 69.6377 8.29203 70.5249 6.84456L68.8197 5.79944C67.7308 7.57597 67.1903 9.55227 67.1903 11.704H69.1903ZM70.5249 6.84456C71.4304 5.36706 72.6173 4.18016 74.0948 3.2746L73.0497 1.5694C71.3032 2.63983 69.8901 4.05293 68.8197 5.79944L70.5249 6.84456ZM74.0948 3.2746C75.5423 2.38744 77.154 1.94 78.9543 1.94V-0.0600032C76.8025 -0.0600032 74.8262 0.480554 73.0497 1.5694L74.0948 3.2746ZM78.9543 1.94H96.0363V-0.0600032H78.9543V1.94ZM95.0363 0.939997V11.236H97.0363V0.939997H95.0363ZM96.0363 10.236H79.3443V12.236H96.0363V10.236ZM79.3443 10.236C78.7833 10.236 78.3038 10.4722 77.9351 10.8409L79.3494 12.2551C79.3646 12.2399 79.3749 12.2319 79.3798 12.2285C79.3845 12.2251 79.3845 12.2257 79.3799 12.2278C79.3751 12.2299 79.3682 12.2324 79.3601 12.234C79.3521 12.2357 79.3464 12.236 79.3443 12.236V10.236ZM77.9351 10.8409C77.5584 11.2176 77.4083 11.6977 77.4083 12.172H79.4083C79.4083 12.1419 79.4127 12.1465 79.4031 12.1721C79.3983 12.1848 79.3912 12.1998 79.3811 12.2155C79.3709 12.2313 79.3599 12.2446 79.3494 12.2551L77.9351 10.8409ZM77.4083 12.172V15.76H79.4083V12.172H77.4083ZM78.4083 16.76H96.0363V14.76H78.4083V16.76ZM95.0363 15.76V25.978H97.0363V15.76H95.0363ZM96.0363 24.978H78.4083V26.978H96.0363V24.978ZM77.4083 25.978V61H79.4083V25.978H77.4083ZM78.4083 60H68.1903V62H78.4083V60ZM105.528 61H104.528V62H105.528V61ZM110.91 17.242L110.399 16.3821L110.387 16.3894L110.91 17.242ZM141.408 15.76H142.408V14.76H141.408V15.76ZM141.408 25.978V26.978H142.408V25.978H141.408ZM115.746 61V62H116.746V61H115.746ZM106.528 61V26.524H104.528V61H106.528ZM106.528 26.524C106.528 24.7237 106.975 23.112 107.862 21.6646L106.157 20.6194C105.068 22.396 104.528 24.3723 104.528 26.524H106.528ZM107.862 21.6646C108.768 20.1871 109.955 19.0002 111.432 18.0946L110.387 16.3894C108.641 17.4598 107.228 18.8729 106.157 20.6194L107.862 21.6646ZM111.42 18.1019C112.931 17.205 114.549 16.76 116.292 16.76V14.76C114.187 14.76 112.217 15.303 110.399 16.3821L111.42 18.1019ZM116.292 16.76H141.408V14.76H116.292V16.76ZM140.408 15.76V25.978H142.408V15.76H140.408ZM141.408 24.978H116.682V26.978H141.408V24.978ZM116.682 24.978C116.121 24.978 115.641 25.2142 115.273 25.5829L116.687 26.9971C116.702 26.9819 116.713 26.9739 116.717 26.9705C116.722 26.9671 116.722 26.9677 116.718 26.9698C116.713 26.9719 116.706 26.9744 116.698 26.976C116.69 26.9777 116.684 26.978 116.682 26.978V24.978ZM115.273 25.5829C114.896 25.9596 114.746 26.4397 114.746 26.914H116.746C116.746 26.8839 116.75 26.8885 116.741 26.9141C116.736 26.9267 116.729 26.9418 116.719 26.9575C116.709 26.9733 116.697 26.9866 116.687 26.9971L115.273 25.5829ZM114.746 26.914V61H116.746V26.914H114.746ZM115.746 60H105.528V62H115.746V60ZM151.736 55.618L152.589 55.0954L152.589 55.0954L151.736 55.618ZM151.736 21.142L150.884 20.6194L150.884 20.6194L151.736 21.142ZM190.814 17.242L190.292 18.0947L190.304 18.1019L190.814 17.242ZM194.714 21.142L193.849 21.6441L193.855 21.6544L193.862 21.6646L194.714 21.142ZM194.714 55.618L193.862 55.0954L193.855 55.1056L193.849 55.1159L194.714 55.618ZM185.666 50.548L184.959 49.8409L184.959 49.8409L185.666 50.548ZM185.666 26.29L184.866 26.89L184.952 27.0043L185.066 27.09L185.666 26.29ZM160.706 50.548L159.906 51.148L159.992 51.2623L160.106 51.348L160.706 50.548ZM161.018 60C159.218 60 157.606 59.5526 156.159 58.6654L155.114 60.3706C156.89 61.4594 158.866 62 161.018 62V60ZM156.159 58.6654C154.681 57.7598 153.494 56.5729 152.589 55.0954L150.884 56.1406C151.954 57.8871 153.367 59.3002 155.114 60.3706L156.159 58.6654ZM152.589 55.0954C151.702 53.648 151.254 52.0363 151.254 50.236H149.254C149.254 52.3877 149.795 54.364 150.884 56.1406L152.589 55.0954ZM151.254 50.236V26.524H149.254V50.236H151.254ZM151.254 26.524C151.254 24.7237 151.702 23.112 152.589 21.6646L150.884 20.6194C149.795 22.396 149.254 24.3723 149.254 26.524H151.254ZM152.589 21.6646C153.494 20.1871 154.681 19.0002 156.159 18.0946L155.114 16.3894C153.367 17.4598 151.954 18.8729 150.884 20.6194L152.589 21.6646ZM156.159 18.0946C157.606 17.2074 159.218 16.76 161.018 16.76V14.76C158.866 14.76 156.89 15.3006 155.114 16.3894L156.159 18.0946ZM161.018 16.76H185.432V14.76H161.018V16.76ZM185.432 16.76C187.232 16.76 188.844 17.2074 190.292 18.0946L191.337 16.3894C189.56 15.3006 187.584 14.76 185.432 14.76V16.76ZM190.304 18.1019C191.827 19.0062 193.002 20.1854 193.849 21.6441L195.579 20.6399C194.554 18.8746 193.13 17.4538 191.325 16.3821L190.304 18.1019ZM193.862 21.6646C194.749 23.112 195.196 24.7237 195.196 26.524H197.196C197.196 24.3723 196.656 22.396 195.567 20.6194L193.862 21.6646ZM195.196 26.524V50.236H197.196V26.524H195.196ZM195.196 50.236C195.196 52.0363 194.749 53.648 193.862 55.0954L195.567 56.1406C196.656 54.364 197.196 52.3877 197.196 50.236H195.196ZM193.849 55.1159C192.998 56.5824 191.842 57.7627 190.37 58.6654L191.415 60.3706C193.166 59.2973 194.558 57.8776 195.579 56.1201L193.849 55.1159ZM190.37 58.6654C188.926 59.55 187.29 60 185.432 60V62C187.631 62 189.634 61.462 191.415 60.3706L190.37 58.6654ZM185.432 60H161.018V62H185.432V60ZM161.408 51.782H185.042V49.782H161.408V51.782ZM185.042 51.782C185.516 51.782 185.997 51.6318 186.373 51.2551L184.959 49.8409C184.97 49.8304 184.983 49.8193 184.999 49.8092C185.014 49.7991 185.029 49.7919 185.042 49.7872C185.068 49.7776 185.072 49.782 185.042 49.782V51.782ZM186.373 51.2551C186.742 50.8864 186.978 50.4069 186.978 49.846H184.978C184.978 49.8439 184.978 49.8381 184.98 49.8301C184.982 49.8221 184.984 49.8152 184.986 49.8104C184.988 49.8057 184.989 49.8057 184.986 49.8104C184.982 49.8153 184.974 49.8257 184.959 49.8409L186.373 51.2551ZM186.978 49.846V26.914H184.978V49.846H186.978ZM186.978 26.914C186.978 26.3392 186.726 25.8349 186.266 25.49L185.066 27.09C185.061 27.086 185.031 27.0607 185.006 27.0102C184.98 26.9597 184.978 26.9207 184.978 26.914H186.978ZM186.466 25.69C186.121 25.2302 185.617 24.978 185.042 24.978V26.978C185.035 26.978 184.996 26.9757 184.946 26.9504C184.895 26.9252 184.87 26.8954 184.866 26.89L186.466 25.69ZM185.042 24.978H161.408V26.978H185.042V24.978ZM161.408 24.978C160.847 24.978 160.368 25.2142 159.999 25.5829L161.413 26.9971C161.428 26.9819 161.439 26.9739 161.444 26.9705C161.448 26.9671 161.448 26.9677 161.444 26.9698C161.439 26.9719 161.432 26.9744 161.424 26.976C161.416 26.9777 161.41 26.978 161.408 26.978V24.978ZM159.999 25.5829C159.622 25.9596 159.472 26.4397 159.472 26.914H161.472C161.472 26.8839 161.477 26.8885 161.467 26.9141C161.462 26.9267 161.455 26.9418 161.445 26.9575C161.435 26.9733 161.424 26.9866 161.413 26.9971L159.999 25.5829ZM159.472 26.914V49.846H161.472V26.914H159.472ZM159.472 49.846C159.472 50.3224 159.62 50.7669 159.906 51.148L161.506 49.948C161.48 49.9131 161.472 49.8896 161.472 49.846H159.472ZM160.106 51.348C160.487 51.6338 160.932 51.782 161.408 51.782V49.782C161.365 49.782 161.341 49.7742 161.306 49.748L160.106 51.348ZM214.946 78.862H213.946V79.862H214.946V78.862ZM214.946 68.566V67.566H213.946V68.566H214.946ZM242.792 68.254L242.192 67.454L242.078 67.5397L241.992 67.654L242.792 68.254ZM243.104 61H244.104V60H243.104V61ZM212.762 59.518L212.239 60.3707L212.251 60.3779L212.762 59.518ZM208.862 55.618L209.715 55.0954L209.715 55.0954L208.862 55.618ZM212.762 17.242L212.251 16.3821L212.239 16.3894L212.762 17.242ZM251.84 21.142L250.975 21.6441L250.981 21.6544L250.987 21.6646L251.84 21.142ZM251.918 73.558L252.783 74.0601L252.783 74.0601L251.918 73.558ZM248.018 77.38L247.528 76.5084L247.511 76.5176L247.495 76.5274L248.018 77.38ZM242.792 50.548L243.499 51.2551L243.499 51.2551L242.792 50.548ZM242.792 26.29L241.992 26.89L242.078 27.0043L242.192 27.09L242.792 26.29ZM217.832 26.29L218.539 26.9971L218.539 26.9971L217.832 26.29ZM217.832 50.548L217.032 51.148L217.118 51.2623L217.232 51.348L217.832 50.548ZM215.946 78.862V68.566H213.946V78.862H215.946ZM214.946 69.566H242.168V67.566H214.946V69.566ZM242.168 69.566C242.743 69.566 243.247 69.3138 243.592 68.854L241.992 67.654C241.996 67.6486 242.021 67.6188 242.072 67.5936C242.122 67.5683 242.161 67.566 242.168 67.566V69.566ZM243.392 69.054C243.852 68.7091 244.104 68.2048 244.104 67.63H242.104C242.104 67.6233 242.106 67.5843 242.132 67.5338C242.157 67.4833 242.187 67.458 242.192 67.454L243.392 69.054ZM244.104 67.63V61H242.104V67.63H244.104ZM243.104 60H218.144V62H243.104V60ZM218.144 60C216.401 60 214.783 59.555 213.273 58.6581L212.251 60.3779C214.069 61.457 216.039 62 218.144 62V60ZM213.285 58.6654C211.807 57.7598 210.62 56.5729 209.715 55.0954L208.009 56.1406C209.08 57.8871 210.493 59.3002 212.239 60.3706L213.285 58.6654ZM209.715 55.0954C208.827 53.648 208.38 52.0363 208.38 50.236H206.38C206.38 52.3877 206.921 54.364 208.009 56.1406L209.715 55.0954ZM208.38 50.236V26.524H206.38V50.236H208.38ZM208.38 26.524C208.38 24.7237 208.827 23.112 209.715 21.6646L208.009 20.6194C206.921 22.396 206.38 24.3723 206.38 26.524H208.38ZM209.715 21.6646C210.62 20.1871 211.807 19.0002 213.285 18.0946L212.239 16.3894C210.493 17.4598 209.08 18.8729 208.009 20.6194L209.715 21.6646ZM213.273 18.1019C214.783 17.205 216.401 16.76 218.144 16.76V14.76C216.039 14.76 214.069 15.303 212.251 16.3821L213.273 18.1019ZM218.144 16.76H242.636V14.76H218.144V16.76ZM242.636 16.76C244.436 16.76 246.048 17.2074 247.495 18.0946L248.541 16.3894C246.764 15.3006 244.788 14.76 242.636 14.76V16.76ZM247.495 18.0946C248.968 18.9972 250.124 20.1776 250.975 21.6441L252.705 20.6399C251.684 18.8823 250.292 17.4627 248.541 16.3894L247.495 18.0946ZM250.987 21.6646C251.875 23.112 252.322 24.7237 252.322 26.524H254.322C254.322 24.3723 253.781 22.396 252.693 20.6194L250.987 21.6646ZM252.322 26.524V68.098H254.322V26.524H252.322ZM252.322 68.098C252.322 69.9656 251.893 71.6097 251.053 73.0559L252.783 74.0601C253.815 72.2824 254.322 70.2864 254.322 68.098H252.322ZM251.053 73.0559C250.209 74.5096 249.04 75.6577 247.528 76.5084L248.508 78.2516C250.324 77.2303 251.755 75.8304 252.783 74.0601L251.053 73.0559ZM247.495 76.5274C246.048 77.4146 244.436 77.862 242.636 77.862V79.862C244.788 79.862 246.764 79.3214 248.541 78.2326L247.495 76.5274ZM242.636 77.862H214.946V79.862H242.636V77.862ZM218.534 51.782H242.168V49.782H218.534V51.782ZM242.168 51.782C242.642 51.782 243.122 51.6318 243.499 51.2551L242.085 49.8409C242.095 49.8304 242.109 49.8193 242.125 49.8092C242.14 49.7991 242.155 49.7919 242.168 49.7872C242.194 49.7776 242.198 49.782 242.168 49.782V51.782ZM243.499 51.2551C243.868 50.8864 244.104 50.4069 244.104 49.846H242.104C242.104 49.8439 242.104 49.8381 242.106 49.8301C242.108 49.8221 242.11 49.8152 242.112 49.8104C242.114 49.8057 242.115 49.8057 242.112 49.8104C242.108 49.8153 242.1 49.8257 242.085 49.8409L243.499 51.2551ZM244.104 49.846V26.914H242.104V49.846H244.104ZM244.104 26.914C244.104 26.3392 243.852 25.8349 243.392 25.49L242.192 27.09C242.187 27.086 242.157 27.0607 242.132 27.0102C242.106 26.9597 242.104 26.9207 242.104 26.914H244.104ZM243.592 25.69C243.247 25.2302 242.743 24.978 242.168 24.978V26.978C242.161 26.978 242.122 26.9757 242.072 26.9504C242.021 26.9252 241.996 26.8954 241.992 26.89L243.592 25.69ZM242.168 24.978H218.534V26.978H242.168V24.978ZM218.534 24.978C217.973 24.978 217.494 25.2142 217.125 25.5829L218.539 26.9971C218.554 26.9819 218.565 26.9739 218.57 26.9705C218.574 26.9671 218.574 26.9677 218.57 26.9698C218.565 26.9719 218.558 26.9744 218.55 26.976C218.542 26.9777 218.536 26.978 218.534 26.978V24.978ZM217.125 25.5829C216.748 25.9596 216.598 26.4397 216.598 26.914H218.598C218.598 26.8839 218.602 26.8885 218.593 26.9141C218.588 26.9268 218.581 26.9418 218.571 26.9575C218.561 26.9733 218.55 26.9866 218.539 26.9971L217.125 25.5829ZM216.598 26.914V49.846H218.598V26.914H216.598ZM216.598 49.846C216.598 50.3224 216.746 50.7669 217.032 51.148L218.632 49.948C218.606 49.9131 218.598 49.8896 218.598 49.846H216.598ZM217.232 51.348C217.613 51.6338 218.058 51.782 218.534 51.782V49.782C218.49 49.782 218.467 49.7742 218.432 49.748L217.232 51.348ZM265.538 61H264.538V62H265.538V61ZM265.538 50.782V49.782H264.538V50.782H265.538ZM275.756 50.782H276.756V49.782H275.756V50.782ZM275.756 61V62H276.756V61H275.756ZM266.538 61V50.782H264.538V61H266.538ZM265.538 51.782H275.756V49.782H265.538V51.782ZM274.756 50.782V61H276.756V50.782H274.756ZM275.756 60H265.538V62H275.756V60Z" fill="#323232" mask="url(#path-4-outside-1_0_1)"/>
<mask id="path-6-outside-2_0_1" maskUnits="userSpaceOnUse" x="20" y="89" width="280" height="63" fill="black">
<rect fill="white" x="20" y="89" width="280" height="63"/>
<path d="M32.508 151C30.532 151 28.738 150.506 27.126 149.518C25.514 148.53 24.214 147.23 23.226 145.618C22.238 144.006 21.744 142.212 21.744 140.236V138.52H31.962V139.846C31.962 140.106 32.04 140.34 32.196 140.548C32.404 140.704 32.638 140.782 32.898 140.782H56.532C56.792 140.782 57 140.704 57.156 140.548C57.364 140.34 57.468 140.106 57.468 139.846V134.464C57.468 134.204 57.364 133.996 57.156 133.84C57 133.632 56.792 133.528 56.532 133.528H32.508C30.532 133.528 28.738 133.034 27.126 132.046C25.514 131.058 24.214 129.758 23.226 128.146C22.238 126.534 21.744 124.74 21.744 122.764V116.524C21.744 114.548 22.238 112.754 23.226 111.142C24.214 109.53 25.514 108.23 27.126 107.242C28.738 106.254 30.532 105.76 32.508 105.76H56.922C58.95 105.76 60.77 106.254 62.382 107.242C63.994 108.23 65.294 109.53 66.282 111.142C67.27 112.754 67.764 114.548 67.764 116.524V118.24H57.468V116.914C57.468 116.654 57.364 116.446 57.156 116.29C57 116.082 56.792 115.978 56.532 115.978H32.898C32.638 115.978 32.404 116.082 32.196 116.29C32.04 116.446 31.962 116.654 31.962 116.914V122.296C31.962 122.556 32.04 122.79 32.196 122.998C32.404 123.154 32.638 123.232 32.898 123.232H56.922C58.95 123.232 60.77 123.726 62.382 124.714C63.994 125.702 65.294 127.002 66.282 128.614C67.27 130.226 67.764 132.02 67.764 133.996V140.236C67.764 142.212 67.27 144.006 66.282 145.618C65.294 147.23 63.994 148.53 62.382 149.518C60.77 150.506 58.95 151 56.922 151H32.508ZM90.2707 151C88.2947 151 86.5007 150.506 84.8887 149.518C83.2767 148.53 81.9767 147.23 80.9887 145.618C80.0007 144.006 79.5067 142.212 79.5067 140.236V91.876H89.7247V105.76H107.353V115.978H89.7247V139.846C89.7247 140.106 89.8027 140.34 89.9587 140.548C90.1667 140.704 90.4007 140.782 90.6607 140.782H107.353V151H90.2707ZM128.372 151C126.396 151 124.576 150.506 122.912 149.518C121.3 148.53 120 147.23 119.012 145.618C118.076 144.006 117.608 142.212 117.608 140.236V105.76H127.826V139.846C127.826 140.106 127.904 140.34 128.06 140.548C128.268 140.704 128.502 140.782 128.762 140.782H152.396C152.656 140.782 152.864 140.704 153.02 140.548C153.228 140.34 153.332 140.106 153.332 139.846V105.76H163.55V140.236C163.55 142.212 163.056 144.006 162.068 145.618C161.132 147.23 159.858 148.53 158.246 149.518C156.634 150.506 154.814 151 152.786 151H128.372ZM184.395 151C182.367 151 180.547 150.506 178.935 149.518C177.323 148.53 176.023 147.23 175.035 145.618C174.099 144.006 173.631 142.212 173.631 140.236V116.524C173.631 114.548 174.099 112.754 175.035 111.142C176.023 109.53 177.323 108.23 178.935 107.242C180.547 106.254 182.367 105.76 184.395 105.76H209.433V90.94H219.651V151H184.395ZM184.863 140.782H208.497C208.757 140.782 208.965 140.704 209.121 140.548C209.329 140.34 209.433 140.106 209.433 139.846V116.914C209.433 116.654 209.329 116.446 209.121 116.29C208.965 116.082 208.757 115.978 208.497 115.978H184.863C184.603 115.978 184.369 116.082 184.161 116.29C184.005 116.446 183.927 116.654 183.927 116.914V139.846C183.927 140.106 184.005 140.34 184.161 140.548C184.369 140.704 184.603 140.782 184.863 140.782ZM231.818 151V105.76H242.036V151H231.818ZM231.818 101.236V90.94H242.036V101.236H231.818ZM263.695 151C261.719 151 259.925 150.506 258.313 149.518C256.701 148.53 255.401 147.23 254.413 145.618C253.425 144.006 252.931 142.212 252.931 140.236V116.524C252.931 114.548 253.425 112.754 254.413 111.142C255.401 109.53 256.701 108.23 258.313 107.242C259.925 106.254 261.719 105.76 263.695 105.76H288.109C290.085 105.76 291.879 106.254 293.491 107.242C295.155 108.23 296.455 109.53 297.391 111.142C298.379 112.754 298.873 114.548 298.873 116.524V140.236C298.873 142.212 298.379 144.006 297.391 145.618C296.455 147.23 295.181 148.53 293.569 149.518C291.957 150.506 290.137 151 288.109 151H263.695ZM264.085 140.782H287.719C287.979 140.782 288.187 140.704 288.343 140.548C288.551 140.34 288.655 140.106 288.655 139.846V116.914C288.655 116.654 288.551 116.446 288.343 116.29C288.187 116.082 287.979 115.978 287.719 115.978H264.085C263.825 115.978 263.591 116.082 263.383 116.29C263.227 116.446 263.149 116.654 263.149 116.914V139.846C263.149 140.106 263.227 140.34 263.383 140.548C263.591 140.704 263.825 140.782 264.085 140.782Z"/>
</mask>
<path d="M27.126 149.518L27.6486 148.665L27.6486 148.665L27.126 149.518ZM23.226 145.618L24.0786 145.095L24.0786 145.095L23.226 145.618ZM21.744 138.52V137.52H20.744V138.52H21.744ZM31.962 138.52H32.962V137.52H31.962V138.52ZM32.196 140.548L31.396 141.148L31.4817 141.262L31.596 141.348L32.196 140.548ZM57.156 140.548L57.8631 141.255L57.8631 141.255L57.156 140.548ZM57.156 133.84L56.356 134.44L56.4417 134.554L56.556 134.64L57.156 133.84ZM27.126 132.046L27.6486 131.193L27.6486 131.193L27.126 132.046ZM27.126 107.242L27.6486 108.095L27.6486 108.095L27.126 107.242ZM62.382 107.242L61.8594 108.095L61.8594 108.095L62.382 107.242ZM67.764 118.24V119.24H68.764V118.24H67.764ZM57.468 118.24H56.468V119.24H57.468V118.24ZM57.156 116.29L56.356 116.89L56.4417 117.004L56.556 117.09L57.156 116.29ZM32.196 116.29L32.9031 116.997L32.9031 116.997L32.196 116.29ZM32.196 122.998L31.396 123.598L31.4817 123.712L31.596 123.798L32.196 122.998ZM62.382 124.714L61.8594 125.567L61.8594 125.567L62.382 124.714ZM66.282 128.614L65.4294 129.137L65.4294 129.137L66.282 128.614ZM66.282 145.618L65.4294 145.095L65.4294 145.095L66.282 145.618ZM62.382 149.518L61.8594 148.665L61.8594 148.665L62.382 149.518ZM32.508 150C30.7077 150 29.096 149.553 27.6486 148.665L26.6034 150.371C28.38 151.459 30.3563 152 32.508 152V150ZM27.6486 148.665C26.1711 147.76 24.9842 146.573 24.0786 145.095L22.3734 146.141C23.4438 147.887 24.8569 149.3 26.6034 150.371L27.6486 148.665ZM24.0786 145.095C23.1914 143.648 22.744 142.036 22.744 140.236H20.744C20.744 142.388 21.2846 144.364 22.3734 146.141L24.0786 145.095ZM22.744 140.236V138.52H20.744V140.236H22.744ZM21.744 139.52H31.962V137.52H21.744V139.52ZM30.962 138.52V139.846H32.962V138.52H30.962ZM30.962 139.846C30.962 140.322 31.1102 140.767 31.396 141.148L32.996 139.948C32.9698 139.913 32.962 139.89 32.962 139.846H30.962ZM31.596 141.348C31.9771 141.634 32.4216 141.782 32.898 141.782V139.782C32.8544 139.782 32.8309 139.774 32.796 139.748L31.596 141.348ZM32.898 141.782H56.532V139.782H32.898V141.782ZM56.532 141.782C57.0063 141.782 57.4864 141.632 57.8631 141.255L56.4489 139.841C56.4594 139.83 56.4727 139.819 56.4885 139.809C56.5042 139.799 56.5193 139.792 56.5319 139.787C56.5575 139.778 56.5621 139.782 56.532 139.782V141.782ZM57.8631 141.255C58.2318 140.886 58.468 140.407 58.468 139.846H56.468C56.468 139.844 56.4683 139.838 56.47 139.83C56.4716 139.822 56.4741 139.815 56.4762 139.81C56.4783 139.806 56.4789 139.806 56.4755 139.81C56.4721 139.815 56.4641 139.826 56.4489 139.841L57.8631 141.255ZM58.468 139.846V134.464H56.468V139.846H58.468ZM58.468 134.464C58.468 133.889 58.2158 133.385 57.756 133.04L56.556 134.64C56.5506 134.636 56.5208 134.611 56.4956 134.56C56.4703 134.51 56.468 134.471 56.468 134.464H58.468ZM57.956 133.24C57.6111 132.78 57.1068 132.528 56.532 132.528V134.528C56.5253 134.528 56.4863 134.526 56.4358 134.5C56.3853 134.475 56.36 134.445 56.356 134.44L57.956 133.24ZM56.532 132.528H32.508V134.528H56.532V132.528ZM32.508 132.528C30.7077 132.528 29.096 132.081 27.6486 131.193L26.6034 132.899C28.38 133.987 30.3563 134.528 32.508 134.528V132.528ZM27.6486 131.193C26.1711 130.288 24.9842 129.101 24.0786 127.623L22.3734 128.669C23.4438 130.415 24.8569 131.828 26.6034 132.899L27.6486 131.193ZM24.0786 127.623C23.1914 126.176 22.744 124.564 22.744 122.764H20.744C20.744 124.916 21.2846 126.892 22.3734 128.669L24.0786 127.623ZM22.744 122.764V116.524H20.744V122.764H22.744ZM22.744 116.524C22.744 114.724 23.1914 113.112 24.0786 111.665L22.3734 110.619C21.2846 112.396 20.744 114.372 20.744 116.524H22.744ZM24.0786 111.665C24.9842 110.187 26.1711 109 27.6486 108.095L26.6034 106.389C24.8569 107.46 23.4438 108.873 22.3734 110.619L24.0786 111.665ZM27.6486 108.095C29.096 107.207 30.7077 106.76 32.508 106.76V104.76C30.3563 104.76 28.38 105.301 26.6034 106.389L27.6486 108.095ZM32.508 106.76H56.922V104.76H32.508V106.76ZM56.922 106.76C58.7795 106.76 60.4162 107.21 61.8594 108.095L62.9046 106.389C61.1238 105.298 59.1205 104.76 56.922 104.76V106.76ZM61.8594 108.095C63.3369 109 64.5238 110.187 65.4294 111.665L67.1346 110.619C66.0642 108.873 64.6511 107.46 62.9046 106.389L61.8594 108.095ZM65.4294 111.665C66.3166 113.112 66.764 114.724 66.764 116.524H68.764C68.764 114.372 68.2234 112.396 67.1346 110.619L65.4294 111.665ZM66.764 116.524V118.24H68.764V116.524H66.764ZM67.764 117.24H57.468V119.24H67.764V117.24ZM58.468 118.24V116.914H56.468V118.24H58.468ZM58.468 116.914C58.468 116.339 58.2158 115.835 57.756 115.49L56.556 117.09C56.5506 117.086 56.5208 117.061 56.4956 117.01C56.4703 116.96 56.468 116.921 56.468 116.914H58.468ZM57.956 115.69C57.6111 115.23 57.1068 114.978 56.532 114.978V116.978C56.5253 116.978 56.4863 116.976 56.4358 116.95C56.3853 116.925 56.36 116.895 56.356 116.89L57.956 115.69ZM56.532 114.978H32.898V116.978H56.532V114.978ZM32.898 114.978C32.3371 114.978 31.8576 115.214 31.4889 115.583L32.9031 116.997C32.9183 116.982 32.9287 116.974 32.9336 116.97C32.9383 116.967 32.9383 116.968 32.9336 116.97C32.9288 116.972 32.9219 116.974 32.9139 116.976C32.9059 116.978 32.9001 116.978 32.898 116.978V114.978ZM31.4889 115.583C31.1122 115.96 30.962 116.44 30.962 116.914H32.962C32.962 116.884 32.9664 116.888 32.9568 116.914C32.9521 116.927 32.9449 116.942 32.9348 116.958C32.9247 116.973 32.9136 116.987 32.9031 116.997L31.4889 115.583ZM30.962 116.914V122.296H32.962V116.914H30.962ZM30.962 122.296C30.962 122.772 31.1102 123.217 31.396 123.598L32.996 122.398C32.9698 122.363 32.962 122.34 32.962 122.296H30.962ZM31.596 123.798C31.9771 124.084 32.4216 124.232 32.898 124.232V122.232C32.8544 122.232 32.8309 122.224 32.796 122.198L31.596 123.798ZM32.898 124.232H56.922V122.232H32.898V124.232ZM56.922 124.232C58.7795 124.232 60.4162 124.682 61.8594 125.567L62.9046 123.861C61.1238 122.77 59.1205 122.232 56.922 122.232V124.232ZM61.8594 125.567C63.3369 126.472 64.5238 127.659 65.4294 129.137L67.1346 128.091C66.0642 126.345 64.6511 124.932 62.9046 123.861L61.8594 125.567ZM65.4294 129.137C66.3166 130.584 66.764 132.196 66.764 133.996H68.764C68.764 131.844 68.2234 129.868 67.1346 128.091L65.4294 129.137ZM66.764 133.996V140.236H68.764V133.996H66.764ZM66.764 140.236C66.764 142.036 66.3166 143.648 65.4294 145.095L67.1346 146.141C68.2234 144.364 68.764 142.388 68.764 140.236H66.764ZM65.4294 145.095C64.5238 146.573 63.3369 147.76 61.8594 148.665L62.9046 150.371C64.6511 149.3 66.0642 147.887 67.1346 146.141L65.4294 145.095ZM61.8594 148.665C60.4162 149.55 58.7795 150 56.922 150V152C59.1205 152 61.1238 151.462 62.9046 150.371L61.8594 148.665ZM56.922 150H32.508V152H56.922V150ZM80.9887 145.618L81.8413 145.095L81.8413 145.095L80.9887 145.618ZM79.5067 91.876V90.876H78.5067V91.876H79.5067ZM89.7247 91.876H90.7247V90.876H89.7247V91.876ZM89.7247 105.76H88.7247V106.76H89.7247V105.76ZM107.353 105.76H108.353V104.76H107.353V105.76ZM107.353 115.978V116.978H108.353V115.978H107.353ZM89.7247 115.978V114.978H88.7247V115.978H89.7247ZM89.9587 140.548L89.1587 141.148L89.2444 141.262L89.3587 141.348L89.9587 140.548ZM107.353 140.782H108.353V139.782H107.353V140.782ZM107.353 151V152H108.353V151H107.353ZM90.2707 150C88.4704 150 86.8587 149.553 85.4112 148.665L84.3661 150.371C86.1426 151.459 88.1189 152 90.2707 152V150ZM85.4112 148.665C83.9337 147.76 82.7468 146.573 81.8413 145.095L80.1361 146.141C81.2065 147.887 82.6196 149.3 84.3661 150.371L85.4112 148.665ZM81.8413 145.095C80.9541 143.648 80.5067 142.036 80.5067 140.236H78.5067C78.5067 142.388 79.0472 144.364 80.1361 146.141L81.8413 145.095ZM80.5067 140.236V91.876H78.5067V140.236H80.5067ZM79.5067 92.876H89.7247V90.876H79.5067V92.876ZM88.7247 91.876V105.76H90.7247V91.876H88.7247ZM89.7247 106.76H107.353V104.76H89.7247V106.76ZM106.353 105.76V115.978H108.353V105.76H106.353ZM107.353 114.978H89.7247V116.978H107.353V114.978ZM88.7247 115.978V139.846H90.7247V115.978H88.7247ZM88.7247 139.846C88.7247 140.322 88.8728 140.767 89.1587 141.148L90.7587 139.948C90.7325 139.913 90.7247 139.89 90.7247 139.846H88.7247ZM89.3587 141.348C89.7398 141.634 90.1843 141.782 90.6607 141.782V139.782C90.617 139.782 90.5936 139.774 90.5587 139.748L89.3587 141.348ZM90.6607 141.782H107.353V139.782H90.6607V141.782ZM106.353 140.782V151H108.353V140.782H106.353ZM107.353 150H90.2707V152H107.353V150ZM122.912 149.518L122.389 150.371L122.401 150.378L122.912 149.518ZM119.012 145.618L118.147 146.12L118.153 146.13L118.159 146.141L119.012 145.618ZM117.608 105.76V104.76H116.608V105.76H117.608ZM127.826 105.76H128.826V104.76H127.826V105.76ZM128.06 140.548L127.26 141.148L127.346 141.262L127.46 141.348L128.06 140.548ZM153.02 140.548L153.727 141.255L153.727 141.255L153.02 140.548ZM153.332 105.76V104.76H152.332V105.76H153.332ZM163.55 105.76H164.55V104.76H163.55V105.76ZM162.068 145.618L161.215 145.095L161.209 145.106L161.203 145.116L162.068 145.618ZM158.246 149.518L157.723 148.665L157.723 148.665L158.246 149.518ZM128.372 150C126.572 150 124.928 149.552 123.422 148.658L122.401 150.378C124.223 151.46 126.22 152 128.372 152V150ZM123.434 148.665C121.957 147.76 120.77 146.573 119.864 145.095L118.159 146.141C119.23 147.887 120.643 149.3 122.389 150.371L123.434 148.665ZM119.877 145.116C119.035 143.666 118.608 142.047 118.608 140.236H116.608C116.608 142.377 117.117 144.346 118.147 146.12L119.877 145.116ZM118.608 140.236V105.76H116.608V140.236H118.608ZM117.608 106.76H127.826V104.76H117.608V106.76ZM126.826 105.76V139.846H128.826V105.76H126.826ZM126.826 139.846C126.826 140.322 126.974 140.767 127.26 141.148L128.86 139.948C128.834 139.913 128.826 139.89 128.826 139.846H126.826ZM127.46 141.348C127.841 141.634 128.285 141.782 128.762 141.782V139.782C128.718 139.782 128.695 139.774 128.66 139.748L127.46 141.348ZM128.762 141.782H152.396V139.782H128.762V141.782ZM152.396 141.782C152.87 141.782 153.35 141.632 153.727 141.255L152.313 139.841C152.323 139.83 152.337 139.819 152.352 139.809C152.368 139.799 152.383 139.792 152.396 139.787C152.421 139.778 152.426 139.782 152.396 139.782V141.782ZM153.727 141.255C154.096 140.886 154.332 140.407 154.332 139.846H152.332C152.332 139.844 152.332 139.838 152.334 139.83C152.335 139.822 152.338 139.815 152.34 139.81C152.342 139.806 152.343 139.806 152.339 139.81C152.336 139.815 152.328 139.826 152.313 139.841L153.727 141.255ZM154.332 139.846V105.76H152.332V139.846H154.332ZM153.332 106.76H163.55V104.76H153.332V106.76ZM162.55 105.76V140.236H164.55V105.76H162.55ZM162.55 140.236C162.55 142.036 162.102 143.648 161.215 145.095L162.92 146.141C164.009 144.364 164.55 142.388 164.55 140.236H162.55ZM161.203 145.116C160.352 146.582 159.196 147.763 157.723 148.665L158.768 150.371C160.52 149.297 161.912 147.878 162.933 146.12L161.203 145.116ZM157.723 148.665C156.28 149.55 154.643 150 152.786 150V152C154.984 152 156.988 151.462 158.768 150.371L157.723 148.665ZM152.786 150H128.372V152H152.786V150ZM175.035 145.618L174.17 146.12L174.176 146.13L174.182 146.141L175.035 145.618ZM175.035 111.142L174.182 110.619L174.176 110.63L174.17 110.64L175.035 111.142ZM209.433 105.76V106.76H210.433V105.76H209.433ZM209.433 90.94V89.94H208.433V90.94H209.433ZM219.651 90.94H220.651V89.94H219.651V90.94ZM219.651 151V152H220.651V151H219.651ZM209.121 116.29L208.321 116.89L208.406 117.004L208.521 117.09L209.121 116.29ZM184.161 116.29L184.868 116.997L184.868 116.997L184.161 116.29ZM184.161 140.548L183.361 141.148L183.446 141.262L183.561 141.348L184.161 140.548ZM184.395 150C182.537 150 180.901 149.55 179.457 148.665L178.412 150.371C180.193 151.462 182.196 152 184.395 152V150ZM179.457 148.665C177.98 147.76 176.793 146.573 175.887 145.095L174.182 146.141C175.253 147.887 176.666 149.3 178.412 150.371L179.457 148.665ZM175.9 145.116C175.057 143.666 174.631 142.047 174.631 140.236H172.631C172.631 142.377 173.14 144.346 174.17 146.12L175.9 145.116ZM174.631 140.236V116.524H172.631V140.236H174.631ZM174.631 116.524C174.631 114.713 175.057 113.094 175.9 111.644L174.17 110.64C173.14 112.414 172.631 114.383 172.631 116.524H174.631ZM175.887 111.665C176.793 110.187 177.98 109 179.457 108.095L178.412 106.389C176.666 107.46 175.253 108.873 174.182 110.619L175.887 111.665ZM179.457 108.095C180.901 107.21 182.537 106.76 184.395 106.76V104.76C182.196 104.76 180.193 105.298 178.412 106.389L179.457 108.095ZM184.395 106.76H209.433V104.76H184.395V106.76ZM210.433 105.76V90.94H208.433V105.76H210.433ZM209.433 91.94H219.651V89.94H209.433V91.94ZM218.651 90.94V151H220.651V90.94H218.651ZM219.651 150H184.395V152H219.651V150ZM184.863 141.782H208.497V139.782H184.863V141.782ZM208.497 141.782C208.971 141.782 209.451 141.632 209.828 141.255L208.414 139.841C208.424 139.83 208.437 139.819 208.453 139.809C208.469 139.799 208.484 139.792 208.497 139.787C208.522 139.778 208.527 139.782 208.497 139.782V141.782ZM209.828 141.255C210.197 140.886 210.433 140.407 210.433 139.846H208.433C208.433 139.844 208.433 139.838 208.435 139.83C208.436 139.822 208.439 139.815 208.441 139.81C208.443 139.806 208.444 139.806 208.44 139.81C208.437 139.815 208.429 139.826 208.414 139.841L209.828 141.255ZM210.433 139.846V116.914H208.433V139.846H210.433ZM210.433 116.914C210.433 116.339 210.181 115.835 209.721 115.49L208.521 117.09C208.515 117.086 208.486 117.061 208.46 117.01C208.435 116.96 208.433 116.921 208.433 116.914H210.433ZM209.921 115.69C209.576 115.23 209.071 114.978 208.497 114.978V116.978C208.49 116.978 208.451 116.976 208.401 116.95C208.35 116.925 208.325 116.895 208.321 116.89L209.921 115.69ZM208.497 114.978H184.863V116.978H208.497V114.978ZM184.863 114.978C184.302 114.978 183.822 115.214 183.454 115.583L184.868 116.997C184.883 116.982 184.893 116.974 184.898 116.97C184.903 116.967 184.903 116.968 184.898 116.97C184.894 116.972 184.887 116.974 184.879 116.976C184.871 116.978 184.865 116.978 184.863 116.978V114.978ZM183.454 115.583C183.077 115.96 182.927 116.44 182.927 116.914H184.927C184.927 116.884 184.931 116.888 184.922 116.914C184.917 116.927 184.91 116.942 184.9 116.958C184.889 116.973 184.878 116.987 184.868 116.997L183.454 115.583ZM182.927 116.914V139.846H184.927V116.914H182.927ZM182.927 139.846C182.927 140.322 183.075 140.767 183.361 141.148L184.961 139.948C184.935 139.913 184.927 139.89 184.927 139.846H182.927ZM183.561 141.348C183.942 141.634 184.386 141.782 184.863 141.782V139.782C184.819 139.782 184.796 139.774 184.761 139.748L183.561 141.348ZM231.818 151H230.818V152H231.818V151ZM231.818 105.76V104.76H230.818V105.76H231.818ZM242.036 105.76H243.036V104.76H242.036V105.76ZM242.036 151V152H243.036V151H242.036ZM231.818 101.236H230.818V102.236H231.818V101.236ZM231.818 90.94V89.94H230.818V90.94H231.818ZM242.036 90.94H243.036V89.94H242.036V90.94ZM242.036 101.236V102.236H243.036V101.236H242.036ZM232.818 151V105.76H230.818V151H232.818ZM231.818 106.76H242.036V104.76H231.818V106.76ZM241.036 105.76V151H243.036V105.76H241.036ZM242.036 150H231.818V152H242.036V150ZM232.818 101.236V90.94H230.818V101.236H232.818ZM231.818 91.94H242.036V89.94H231.818V91.94ZM241.036 90.94V101.236H243.036V90.94H241.036ZM242.036 100.236H231.818V102.236H242.036V100.236ZM254.413 145.618L255.266 145.095L255.266 145.095L254.413 145.618ZM254.413 111.142L253.561 110.619L253.561 110.619L254.413 111.142ZM293.491 107.242L292.969 108.095L292.981 108.102L293.491 107.242ZM297.391 111.142L296.526 111.644L296.532 111.654L296.539 111.665L297.391 111.142ZM297.391 145.618L296.539 145.095L296.532 145.106L296.526 145.116L297.391 145.618ZM288.343 140.548L287.636 139.841L287.636 139.841L288.343 140.548ZM288.343 116.29L287.543 116.89L287.629 117.004L287.743 117.09L288.343 116.29ZM263.383 140.548L262.583 141.148L262.669 141.262L262.783 141.348L263.383 140.548ZM263.695 150C261.895 150 260.283 149.553 258.836 148.665L257.791 150.371C259.567 151.459 261.543 152 263.695 152V150ZM258.836 148.665C257.358 147.76 256.171 146.573 255.266 145.095L253.561 146.141C254.631 147.887 256.044 149.3 257.791 150.371L258.836 148.665ZM255.266 145.095C254.379 143.648 253.931 142.036 253.931 140.236H251.931C251.931 142.388 252.472 144.364 253.561 146.141L255.266 145.095ZM253.931 140.236V116.524H251.931V140.236H253.931ZM253.931 116.524C253.931 114.724 254.379 113.112 255.266 111.665L253.561 110.619C252.472 112.396 251.931 114.372 251.931 116.524H253.931ZM255.266 111.665C256.171 110.187 257.358 109 258.836 108.095L257.791 106.389C256.044 107.46 254.631 108.873 253.561 110.619L255.266 111.665ZM258.836 108.095C260.283 107.207 261.895 106.76 263.695 106.76V104.76C261.543 104.76 259.567 105.301 257.791 106.389L258.836 108.095ZM263.695 106.76H288.109V104.76H263.695V106.76ZM288.109 106.76C289.909 106.76 291.521 107.207 292.969 108.095L294.014 106.389C292.237 105.301 290.261 104.76 288.109 104.76V106.76ZM292.981 108.102C294.504 109.006 295.679 110.185 296.526 111.644L298.256 110.64C297.231 108.875 295.806 107.454 294.002 106.382L292.981 108.102ZM296.539 111.665C297.426 113.112 297.873 114.724 297.873 116.524H299.873C299.873 114.372 299.333 112.396 298.244 110.619L296.539 111.665ZM297.873 116.524V140.236H299.873V116.524H297.873ZM297.873 140.236C297.873 142.036 297.426 143.648 296.539 145.095L298.244 146.141C299.333 144.364 299.873 142.388 299.873 140.236H297.873ZM296.526 145.116C295.675 146.582 294.519 147.763 293.047 148.665L294.092 150.371C295.843 149.297 297.235 147.878 298.256 146.12L296.526 145.116ZM293.047 148.665C291.603 149.55 289.967 150 288.109 150V152C290.308 152 292.311 151.462 294.092 150.371L293.047 148.665ZM288.109 150H263.695V152H288.109V150ZM264.085 141.782H287.719V139.782H264.085V141.782ZM287.719 141.782C288.193 141.782 288.673 141.632 289.05 141.255L287.636 139.841C287.647 139.83 287.66 139.819 287.676 139.809C287.691 139.799 287.706 139.792 287.719 139.787C287.745 139.778 287.749 139.782 287.719 139.782V141.782ZM289.05 141.255C289.419 140.886 289.655 140.407 289.655 139.846H287.655C287.655 139.844 287.655 139.838 287.657 139.83C287.659 139.822 287.661 139.815 287.663 139.81C287.665 139.806 287.666 139.806 287.663 139.81C287.659 139.815 287.651 139.826 287.636 139.841L289.05 141.255ZM289.655 139.846V116.914H287.655V139.846H289.655ZM289.655 116.914C289.655 116.339 289.403 115.835 288.943 115.49L287.743 117.09C287.738 117.086 287.708 117.061 287.683 117.01C287.657 116.96 287.655 116.921 287.655 116.914H289.655ZM289.143 115.69C288.798 115.23 288.294 114.978 287.719 114.978V116.978C287.712 116.978 287.673 116.976 287.623 116.95C287.572 116.925 287.547 116.895 287.543 116.89L289.143 115.69ZM287.719 114.978H264.085V116.978H287.719V114.978ZM264.085 114.978C263.524 114.978 263.045 115.214 262.676 115.583L264.09 116.997C264.105 116.982 264.116 116.974 264.121 116.97C264.125 116.967 264.125 116.968 264.121 116.97C264.116 116.972 264.109 116.974 264.101 116.976C264.093 116.978 264.087 116.978 264.085 116.978V114.978ZM262.676 115.583C262.299 115.96 262.149 116.44 262.149 116.914H264.149C264.149 116.884 264.154 116.888 264.144 116.914C264.139 116.927 264.132 116.942 264.122 116.958C264.112 116.973 264.101 116.987 264.09 116.997L262.676 115.583ZM262.149 116.914V139.846H264.149V116.914H262.149ZM262.149 139.846C262.149 140.322 262.297 140.767 262.583 141.148L264.183 139.948C264.157 139.913 264.149 139.89 264.149 139.846H262.149ZM262.783 141.348C263.164 141.634 263.609 141.782 264.085 141.782V139.782C264.041 139.782 264.018 139.774 263.983 139.748L262.783 141.348Z" fill="#323232" mask="url(#path-6-outside-2_0_1)"/>
<path d="M13.148 68L16.97 55.364H10.496V45.146H20.09L23.6 34.148H12.758V23.93H26.876L30.854 11.84H41.306L37.172 23.93H50.9L54.878 11.84H65.252L61.118 23.93H67.046V34.148H57.92L54.41 45.146H64.784V55.364H51.056L47.39 68H37.016L40.916 55.364H27.11L23.444 68H13.148ZM30.464 45.146H44.036L47.624 34.148H33.974L30.464 45.146ZM78.1903 68V18.704C78.1903 16.728 78.6843 14.934 79.6723 13.322C80.6603 11.71 81.9603 10.41 83.5723 9.422C85.1843 8.434 86.9783 7.94 88.9543 7.94H106.036V18.236H89.3443C89.0843 18.236 88.8503 18.34 88.6423 18.548C88.4863 18.704 88.4083 18.912 88.4083 19.172V22.76H106.036V32.978H88.4083V68H78.1903ZM115.528 68V33.524C115.528 31.548 116.022 29.754 117.01 28.142C117.998 26.53 119.298 25.23 120.91 24.242C122.574 23.254 124.368 22.76 126.292 22.76H151.408V32.978H126.682C126.422 32.978 126.188 33.082 125.98 33.29C125.824 33.446 125.746 33.654 125.746 33.914V68H115.528ZM171.018 68C169.042 68 167.248 67.506 165.636 66.518C164.024 65.53 162.724 64.23 161.736 62.618C160.748 61.006 160.254 59.212 160.254 57.236V33.524C160.254 31.548 160.748 29.754 161.736 28.142C162.724 26.53 164.024 25.23 165.636 24.242C167.248 23.254 169.042 22.76 171.018 22.76H195.432C197.408 22.76 199.202 23.254 200.814 24.242C202.478 25.23 203.778 26.53 204.714 28.142C205.702 29.754 206.196 31.548 206.196 33.524V57.236C206.196 59.212 205.702 61.006 204.714 62.618C203.778 64.23 202.504 65.53 200.892 66.518C199.28 67.506 197.46 68 195.432 68H171.018ZM171.408 57.782H195.042C195.302 57.782 195.51 57.704 195.666 57.548C195.874 57.34 195.978 57.106 195.978 56.846V33.914C195.978 33.654 195.874 33.446 195.666 33.29C195.51 33.082 195.302 32.978 195.042 32.978H171.408C171.148 32.978 170.914 33.082 170.706 33.29C170.55 33.446 170.472 33.654 170.472 33.914V56.846C170.472 57.106 170.55 57.34 170.706 57.548C170.914 57.704 171.148 57.782 171.408 57.782ZM224.946 85.862V75.566H252.168C252.428 75.566 252.636 75.462 252.792 75.254C253 75.098 253.104 74.89 253.104 74.63V68H228.144C226.22 68 224.426 67.506 222.762 66.518C221.15 65.53 219.85 64.23 218.862 62.618C217.874 61.006 217.38 59.212 217.38 57.236V33.524C217.38 31.548 217.874 29.754 218.862 28.142C219.85 26.53 221.15 25.23 222.762 24.242C224.426 23.254 226.22 22.76 228.144 22.76H252.636C254.612 22.76 256.406 23.254 258.018 24.242C259.63 25.23 260.904 26.53 261.84 28.142C262.828 29.754 263.322 31.548 263.322 33.524V75.098C263.322 77.126 262.854 78.946 261.918 80.558C260.982 82.17 259.682 83.444 258.018 84.38C256.406 85.368 254.612 85.862 252.636 85.862H224.946ZM228.534 57.782H252.168C252.428 57.782 252.636 57.704 252.792 57.548C253 57.34 253.104 57.106 253.104 56.846V33.914C253.104 33.654 253 33.446 252.792 33.29C252.636 33.082 252.428 32.978 252.168 32.978H228.534C228.274 32.978 228.04 33.082 227.832 33.29C227.676 33.446 227.598 33.654 227.598 33.914V56.846C227.598 57.106 227.676 57.34 227.832 57.548C228.04 57.704 228.274 57.782 228.534 57.782ZM275.538 68V57.782H285.756V68H275.538ZM22.508 161C20.532 161 18.738 160.506 17.126 159.518C15.514 158.53 14.214 157.23 13.226 155.618C12.238 154.006 11.744 152.212 11.744 150.236V148.52H21.962V149.846C21.962 150.106 22.04 150.34 22.196 150.548C22.404 150.704 22.638 150.782 22.898 150.782H46.532C46.792 150.782 47 150.704 47.156 150.548C47.364 150.34 47.468 150.106 47.468 149.846V144.464C47.468 144.204 47.364 143.996 47.156 143.84C47 143.632 46.792 143.528 46.532 143.528H22.508C20.532 143.528 18.738 143.034 17.126 142.046C15.514 141.058 14.214 139.758 13.226 138.146C12.238 136.534 11.744 134.74 11.744 132.764V126.524C11.744 124.548 12.238 122.754 13.226 121.142C14.214 119.53 15.514 118.23 17.126 117.242C18.738 116.254 20.532 115.76 22.508 115.76H46.922C48.95 115.76 50.77 116.254 52.382 117.242C53.994 118.23 55.294 119.53 56.282 121.142C57.27 122.754 57.764 124.548 57.764 126.524V128.24H47.468V126.914C47.468 126.654 47.364 126.446 47.156 126.29C47 126.082 46.792 125.978 46.532 125.978H22.898C22.638 125.978 22.404 126.082 22.196 126.29C22.04 126.446 21.962 126.654 21.962 126.914V132.296C21.962 132.556 22.04 132.79 22.196 132.998C22.404 133.154 22.638 133.232 22.898 133.232H46.922C48.95 133.232 50.77 133.726 52.382 134.714C53.994 135.702 55.294 137.002 56.282 138.614C57.27 140.226 57.764 142.02 57.764 143.996V150.236C57.764 152.212 57.27 154.006 56.282 155.618C55.294 157.23 53.994 158.53 52.382 159.518C50.77 160.506 48.95 161 46.922 161H22.508ZM80.2707 161C78.2947 161 76.5007 160.506 74.8887 159.518C73.2767 158.53 71.9767 157.23 70.9887 155.618C70.0007 154.006 69.5067 152.212 69.5067 150.236V101.876H79.7247V115.76H97.3527V125.978H79.7247V149.846C79.7247 150.106 79.8027 150.34 79.9587 150.548C80.1667 150.704 80.4007 150.782 80.6607 150.782H97.3527V161H80.2707ZM118.372 161C116.396 161 114.576 160.506 112.912 159.518C111.3 158.53 110 157.23 109.012 155.618C108.076 154.006 107.608 152.212 107.608 150.236V115.76H117.826V149.846C117.826 150.106 117.904 150.34 118.06 150.548C118.268 150.704 118.502 150.782 118.762 150.782H142.396C142.656 150.782 142.864 150.704 143.02 150.548C143.228 150.34 143.332 150.106 143.332 149.846V115.76H153.55V150.236C153.55 152.212 153.056 154.006 152.068 155.618C151.132 157.23 149.858 158.53 148.246 159.518C146.634 160.506 144.814 161 142.786 161H118.372ZM174.395 161C172.367 161 170.547 160.506 168.935 159.518C167.323 158.53 166.023 157.23 165.035 155.618C164.099 154.006 163.631 152.212 163.631 150.236V126.524C163.631 124.548 164.099 122.754 165.035 121.142C166.023 119.53 167.323 118.23 168.935 117.242C170.547 116.254 172.367 115.76 174.395 115.76H199.433V100.94H209.651V161H174.395ZM174.863 150.782H198.497C198.757 150.782 198.965 150.704 199.121 150.548C199.329 150.34 199.433 150.106 199.433 149.846V126.914C199.433 126.654 199.329 126.446 199.121 126.29C198.965 126.082 198.757 125.978 198.497 125.978H174.863C174.603 125.978 174.369 126.082 174.161 126.29C174.005 126.446 173.927 126.654 173.927 126.914V149.846C173.927 150.106 174.005 150.34 174.161 150.548C174.369 150.704 174.603 150.782 174.863 150.782ZM221.818 161V115.76H232.036V161H221.818ZM221.818 111.236V100.94H232.036V111.236H221.818ZM253.695 161C251.719 161 249.925 160.506 248.313 159.518C246.701 158.53 245.401 157.23 244.413 155.618C243.425 154.006 242.931 152.212 242.931 150.236V126.524C242.931 124.548 243.425 122.754 244.413 121.142C245.401 119.53 246.701 118.23 248.313 117.242C249.925 116.254 251.719 115.76 253.695 115.76H278.109C280.085 115.76 281.879 116.254 283.491 117.242C285.155 118.23 286.455 119.53 287.391 121.142C288.379 122.754 288.873 124.548 288.873 126.524V150.236C288.873 152.212 288.379 154.006 287.391 155.618C286.455 157.23 285.181 158.53 283.569 159.518C281.957 160.506 280.137 161 278.109 161H253.695ZM254.085 150.782H277.719C277.979 150.782 278.187 150.704 278.343 150.548C278.551 150.34 278.655 150.106 278.655 149.846V126.914C278.655 126.654 278.551 126.446 278.343 126.29C278.187 126.082 277.979 125.978 277.719 125.978H254.085C253.825 125.978 253.591 126.082 253.383 126.29C253.227 126.446 253.149 126.654 253.149 126.914V149.846C253.149 150.106 253.227 150.34 253.383 150.548C253.591 150.704 253.825 150.782 254.085 150.782Z" fill="white"/>
</svg>
